/* XPM */
static char *image[] = {
"48 48 487 2",
"   c None",
"00 c #00000a",
"10 c #000012",
"20 c #0f0f1d",
"30 c #28264c",
"40 c #353366",
"50 c #403c7a",
"60 c #454285",
"70 c #4a468c",
"80 c #474488",
"90 c #444081",
":0 c #252451",
";0 c #060642",
"A0 c #1a183b",
"B0 c #05050b",
"C0 c #141426",
"D0 c #373468",
"E0 c #4f4c97",
"F0 c #262457",
"G0 c #050543",
"H0 c #25246a",
"I0 c #5753a4",
"J0 c #474385",
"K0 c #29284f",
"L0 c #06060d",
"M0 c #000000",
"N0 c #21203f",
"O0 c #48468a",
"P0 c #1e1d4a",
"Q0 c #0a0a4c",
"R0 c #514da0",
"S0 c #5551a2",
"T0 c #3a376f",
"U0 c #0c0c16",
"V0 c #4e4a93",
"W0 c #1b1947",
"X0 c #02023f",
"Y0 c #08094f",
"Z0 c #33317c",
"a0 c #5652a4",
"b0 c #39376f",
"c0 c #5854a8",
"d0 c #181743",
"e0 c #01013f",
"f0 c #0b0e56",
"g0 c #181860",
"h0 c #5753a8",
"i0 c #5551a3",
"j0 c #191842",
"k0 c #0e115c",
"l0 c #0e105b",
"m0 c #4d4a97",
"n0 c #6f6cb5",
"o0 c #9895ca",
"p0 c #b4b1d8",
"q0 c #2d2d4c",
"r0 c #00003e",
"s0 c #101360",
"t0 c #121565",
"u0 c #545389",
"v0 c #9c99cc",
"w0 c #8c88c4",
"x0 c #7974b9",
"y0 c #f1f0f7",
"z0 c #656575",
"01 c #47486c",
"11 c #101462",
"21 c #171b70",
"31 c #353772",
"41 c #f9f9fa",
"51 c #f0eff7",
"61 c #aaa8d3",
"71 c #6460af",
"81 c #454558",
"91 c #01013d",
":1 c #292c61",
";1 c #7a7ea7",
"A1 c #191c68",
"B1 c #8988b6",
"C1 c #a1a0cf",
"D1 c #9995c9",
"E1 c #726eb7",
"F1 c #b9b8db",
"G1 c #4f4f5d",
"H1 c #02023d",
"I1 c #0f125e",
"J1 c #323680",
"K1 c #8889a8",
"L1 c #a6a3d0",
"M1 c #9a96ca",
"N1 c #908cc4",
"O1 c #706cb6",
"P1 c #6966b2",
"Q1 c #615cac",
"R1 c #cbcae5",
"S1 c #595963",
"T1 c #03033c",
"U1 c #0d0f59",
"V1 c #202684",
"W1 c #1e2480",
"X1 c #565888",
"Y1 c #fefefe",
"Z1 c #eae9f4",
"a1 c #d7d5e9",
"b1 c #9492c8",
"c1 c #6764b1",
"d1 c #2f2e4f",
"e1 c #030238",
"f1 c #0a0c53",
"g1 c #202785",
"h1 c #262e8f",
"i1 c #393c7c",
"j1 c #f2f2f5",
"k1 c #e7e7f3",
"l1 c #b0aed7",
"m1 c #7470b6",
"n1 c #2e2c51",
"o1 c #030335",
"p1 c #06074a",
"q1 c #1f2683",
"r1 c #303a9d",
"s1 c #1f2479",
"t1 c #9a98c1",
"u1 c #d0cee6",
"v1 c #fdfcfe",
"w1 c #adaad5",
"x1 c #2d2b54",
"y1 c #040432",
"z1 c #010240",
"02 c #1d237e",
"12 c #3843a9",
"22 c #212783",
"32 c #625f9e",
"42 c #908cc5",
"52 c #9591c8",
"62 c #9995ca",
"72 c #b9b7db",
"82 c #f5f4fa",
"92 c #e9e9f4",
":2 c #3e3b77",
";2 c #070730",
"A2 c #191f76",
"B2 c #3c48af",
"C2 c #2b3395",
"D2 c #47468d",
"E2 c #8480bf",
"F2 c #8884c1",
"G2 c #8b87c2",
"H2 c #a9a6d3",
"I2 c #e0dfef",
"J2 c #c8c7e3",
"K2 c #524f9c",
"L2 c #0b0b30",
"M2 c #15196c",
"N2 c #3c48ae",
"O2 c #3844a9",
"P2 c #353585",
"Q2 c #7a75bb",
"R2 c #8c89c5",
"S2 c #e5e5f2",
"T2 c #efeef6",
"U2 c #111033",
"V2 c #101361",
"W2 c #3742a7",
"X2 c #4654bd",
"Y2 c #2a2d83",
"Z2 c #625fae",
"a2 c #6663b0",
"b2 c #6a66b2",
"c2 c #6d69b3",
"d2 c #6966b1",
"e2 c #6562b0",
"f2 c #605dad",
"g2 c #d3d2e9",
"h2 c #f6f6fb",
"i2 c #171638",
"j2 c #00003c",
"k2 c #0a0d54",
"l2 c #2e389b",
"m2 c #5363cf",
"n2 c #292d8b",
"o2 c #534fa2",
"p2 c #5b57ab",
"q2 c #5e5bac",
"r2 c #5a56aa",
"s2 c #6662b0",
"t2 c #393859",
"u2 c #282957",
"v2 c #060748",
"w2 c #7375a0",
"x2 c #6170d5",
"y2 c #4c499b",
"z2 c #a2a0cf",
"03 c #1e1d47",
"13 c #01013c",
"23 c #2e2f59",
"33 c #7b7e99",
"43 c #707cca",
"53 c #3944aa",
"63 c #444295",
"73 c #26244f",
"83 c #02023b",
"93 c #6e7092",
":3 c #8d93c3",
";3 c #8890c9",
"A3 c #3f3f92",
"B3 c #6a67b2",
"C3 c #7774b8",
"D3 c #3b3975",
"E3 c #05053c",
"F3 c #606185",
"G3 c #888dba",
"H3 c #4c5ac5",
"I3 c #383a8e",
"J3 c #5e5aaa",
"K3 c #7875b9",
"L3 c #8482c0",
"M3 c #8784c2",
"N3 c #918ec7",
"O3 c #9593c8",
"P3 c #9d9bcd",
"Q3 c #b7b5d9",
"R3 c #c4c3e0",
"S3 c #d7d5ea",
"T3 c #9c9acc",
"U3 c #5955a8",
"V3 c #0b0a3e",
"W3 c #5c5d80",
"X3 c #9295b4",
"Y3 c #4d5cc4",
"Z3 c #2c318d",
"a3 c #8e8bc5",
"b3 c #f1f1f8",
"c3 c #bdbcdd",
"d3 c #131242",
"e3 c #535376",
"f3 c #9192a5",
"g3 c #4b58ba",
"h3 c #2d3493",
"i3 c #524fa1",
"j3 c #807cbe",
"k3 c #deddee",
"l3 c #e3e3f1",
"m3 c #1e1d4b",
"n3 c #00003d",
"o3 c #545475",
"p3 c #8e8e97",
"q3 c #4a53ac",
"r3 c #2f3799",
"s3 c #4a489a",
"t3 c #6e6bb4",
"u3 c #c5c4e1",
"v3 c #fffeff",
"w3 c #d8d7ea",
"x3 c #e3e2f0",
"y3 c #bcbadd",
"z3 c #8683c1",
"04 c #36336e",
"14 c #04043f",
"24 c #4e4e73",
"34 c #818185",
"44 c #4e55a3",
"54 c #313a9c",
"64 c #484698",
"74 c #726eb6",
"84 c #7c79bb",
"94 c #b0aed6",
":4 c #f2f1f8",
";4 c #a9a7d3",
"A4 c #a6a3d1",
"B4 c #9e9bcc",
"C4 c #8e8cc4",
"D4 c #5753a5",
"E4 c #12114d",
"F4 c #4b4b70",
"G4 c #69696a",
"H4 c #565b9b",
"I4 c #2f379b",
"J4 c #454398",
"K4 c #7672b8",
"L4 c #edecf5",
"M4 c #d9d8eb",
"N4 c #9997cb",
"O4 c #807bbd",
"P4 c #5854a9",
"Q4 c #302e73",
"R4 c #42426b",
"S4 c #484849",
"T4 c #6f719c",
"U4 c #2a3294",
"V4 c #444398",
"W4 c #9693c9",
"X4 c #a3a0cf",
"Y4 c #dddcee",
"Z4 c #9491c8",
"a4 c #7d79bc",
"b4 c #474770",
"c4 c #2e2e2f",
"d4 c #8587a5",
"e4 c #262c89",
"f4 c #4a489c",
"g4 c #7572b8",
"h4 c #8380be",
"i4 c #9b98cb",
"j4 c #a4a1cf",
"k4 c #a8a5d1",
"l4 c #f7f7fb",
"m4 c #8683c0",
"n4 c #6d6ab3",
"o4 c #5a57a9",
"p4 c #4c4c4e",
"q4 c #a0a1b3",
"r4 c #2b2f85",
"s4 c #4f4da1",
"t4 c #716eb5",
"u4 c #7d7abc",
"v4 c #8581bf",
"w4 c #918ec6",
"x4 c #aeacd5",
"y4 c #c5c3e1",
"z4 c #fafafd",
"05 c #afadd6",
"15 c #8f8cc5",
"25 c #8885c1",
"35 c #7a77bb",
"45 c #5b58aa",
"55 c #9e9eae",
"65 c #474693",
"75 c #5754a8",
"85 c #5e5bab",
"95 c #7e7abc",
":5 c #8c89c3",
";5 c #928fc7",
"A5 c #9996ca",
"B5 c #9f9ccd",
"C5 c #a5a2d0",
"D5 c #aba9d3",
"E5 c #b2afd7",
"F5 c #b5b3d9",
"G5 c #c9c8e3",
"H5 c #fafafc",
"I5 c #8986c2",
"J5 c #7571b8",
"K5 c #6f6cb4",
"L5 c #5a54a9",
"M5 c #9d9bcc",
"N5 c #a8a5d2",
"O5 c #9a97ca",
"P5 c #918fc6",
"Q5 c #9895c9",
"R5 c #9e9bcd",
"S5 c #a3a1cf",
"T5 c #a9a7d2",
"U5 c #afacd5",
"V5 c #b2b0d7",
"W5 c #b1afd6",
"X5 c #b4b2d8",
"Y5 c #ededf6",
"Z5 c #8d8ac4",
"a5 c #7b77bb",
"b5 c #6865b1",
"c5 c #b1afd7",
"d5 c #f7f6fb",
"e5 c #e8e7f3",
"f5 c #dad9eb",
"g5 c #cbc9e4",
"h5 c #c8c6e2",
"i5 c #cac9e4",
"j5 c #cccbe5",
"k5 c #d5d4e9",
"l5 c #cac9e3",
"m5 c #7976ba",
"n5 c #736fb7",
"o5 c #6e6ab3",
"p5 c #5b57a9",
"q5 c #fbfbfd",
"r5 c #716db6",
"s5 c #5f5bac",
"t5 c #a4a1d0",
"u5 c #9f9dce",
"v5 c #f3f3f9",
"w5 c #c0bfde",
"x5 c #bbb9dc",
"y5 c #c1bfdf",
"z5 c #cdcce5",
"06 c #e6e5f2",
"16 c #f2f2f8",
"26 c #fcfcfd",
"36 c #f9f9fc",
"46 c #6662af",
"56 c #fdfdfe",
"66 c #d9d8ec",
"76 c #7470b7",
"86 c #7774b9",
"96 c #7c78bb",
":6 c #817dbd",
";6 c #8784c1",
"A6 c #8a87c2",
"B6 c #8b88c3",
"C6 c #9592c8",
"D6 c #a5a3d0",
"E6 c #b8b6da",
"F6 c #c6c5e1",
"G6 c #d1d0e7",
"H6 c #dbdaec",
"I6 c #dddced",
"J6 c #c8c7e2",
"K6 c #726eb5",
"L6 c #6764b0",
"M6 c #adabd5",
"N6 c #eaeaf4",
"O6 c #b6b4d9",
"P6 c #9390c7",
"Q6 c #7c79bc",
"R6 c #807cbd",
"S6 c #827ebe",
"T6 c #8481bf",
"U6 c #8380bf",
"V6 c #817dbe",
"W6 c #7e7bbc",
"X6 c #7874b9",
"Y6 c #716db5",
"Z6 c #5d5aab",
"a6 c #a09dce",
"b6 c #f4f4f9",
"c6 c #ffffff",
"d6 c #f6f5fa",
"e6 c #d7d6ea",
"f6 c #bcbadc",
"g6 c #a09ece",
"h6 c #8582c0",
"i6 c #7b78bb",
"j6 c #7a77ba",
"k6 c #7975ba",
"l6 c #7773b9",
"m6 c #7471b7",
"n6 c #6f6bb4",
"o6 c #605cad",
"p6 c #8e8bc4",
"q6 c #a7a5d1",
"r6 c #acaad4",
"s6 c #a6a4d1",
"t6 c #a5a4d1",
"u6 c #a4a2d0",
"v6 c #9f9dcd",
"w6 c #9c9acb",
"x6 c #9491c7",
"y6 c #8c89c4",
"z6 c #7673b8",
"07 c #7370b7",
"17 c #726fb6",
"27 c #716eb6",
"37 c #706db5",
"47 c #6e6ab4",
"57 c #6b68b2",
"67 c #6562af",
"77 c #6864b0",
"87 c #6a66b1",
"97 c #6c69b3",
":7 c #6c68b2",
";7 c #6b67b2",
"A7 c #6965b1",
"B7 c #6763b0",
"C7 c #615dad",
"D7 c #5e5aab",
"E7 c #605cac",
"F7 c #625ead",
"G7 c #6360ae",
"H7 c #6561af",
"I7 c #6461af",
"J7 c #6460ae",
"K7 c #635fae",
"L7 c #615ead",
"M7 c #5f5cac",
"N7 c #5d59ab",
"O7 c #5d59aa",
"P7 c #5c58aa",
"Q7 c #5b57aa",
"R7 c #5a56a9",
"S7 c #5854aa",
"T7 c #5954a9",
"U7 c #5955a9",
"V7 c #5954aa",
"W7 c #5855a9",
"X7 c #5855aa",
"Y7 c #5955aa",
"Z7 c #5855a8",
"                                    Z7Y7X7W7V7V7Y7U7Y7                                          ",
"                            T7V7U7U7U7U7U7U7U7U7U7U7U7U7U7U7                                    ",
"                        U7S7U7U7U7U7R7Q7P7O7O7P7P7R7U7U7U7U7U7U7                                ",
"                    Y7U7U7U7U7R7N7M7L7K7J7I7H7J7G7F7E7D7P7U7U7U7U7Y7                            ",
"                  Y7U7U7U7R7D7C7J7B7A7;7:79797:7;7877767K7M7P7U7U7U7U7                          ",
"                U7U7U7U7O7C7H777574737271707z6y6x6w6v6u6t6s6r6q6p6o6U7U7T7                      ",
"              U7U7U7U7D7F7B7;7n627m6l6k6j6i6i6h6g6f6e6d6c6c6c6c6c6b6a6U7U7U7                    ",
"            S7U7U7U7Z6K77797Y6m6X6i6W6V6U6T6T6U6S6R6Q6i6P6O6N6c6c6c6c6M6U7U7U7                  ",
"          V7U7U7U7P7F7L697K6p6J6I6H6G6F6E6D6C6B6A6;6T6:696867666c6c6c656Y6U7U7Y7                ",
"        Y7U7U7U7R7E74657Y6;636c6c6c6c6c6c6c6c6261606H6z5y5x5w5v5c6c6c6c6u5U7U7S7                ",
"      Y7U7U7U7U7N7K7A7n676q6c6c6c6c6c6c6c6c6c6c6c6c6c6c6c6c6c6c6c6c6c6c6t5U7U7U7V7              ",
"      U7U7U7U7U7s567:7r586A6q5c6c6c6c6c6c6c6c6c6c6c6c6c6c6c6c6c6c6c6c6c6W6U7U7U7U7Y7            ",
"    T7U7U7U7U7p5C7L6o5n5m5R6l5c6c6c6c6c6b6k5j5i5h5g5z5f5e5d5c6c6c6c6q5c5N7U7U7U7U7V7            ",
"    S7U7U7U7U7P7F7b5n6m6a5S6Z5Y5c6c6c6c6X5W5V5U5T5S5R5Q5P5B6p6O5N5M596H7D7U7U7U7U7U7L5          ",
"    U7U7U7U7U7P7F7A7K5J5i6S6I5D6H5c6c6c6G5F5E6E5D5C5B5A5;5:5h69586r557H785U7U7U7U7756555        ",
"  V7U7U7U7U7U745F7b5n6m635S6251505q5c6c6z4y4c5x4T5S5R5Q5w4B6v4u4l6t4;7H7D7U7U7U7s4r4q4p4        ",
"  U7U7U7U7U7U7o4C7B7n4n5m5R6m4Z5P6c5l4c6c656z5k4j4g6i4C615I5h496g43787G7N7U7U7f4e4d4c4b4        ",
"  U7U7U7U7U7U7U7s56757K6l6a4U6I515Z4u6N6c6c6c6Y4X4i4W4w4:5m4R6m5074777F7Q7U7V4U4T4S4R4Q4        ",
"P4U7U7U7U7U7U7U7O7K7A7n607m5O4h6A615P6N4M4c6c6c6L4u6w4:5;6S6i6K4t457H7s5U7J4I4H4G4F4E4D4        ",
"U7U7U7U7U7U7U7U7R7E767;7Y6X6C4B4A4;4s6B5x6F5:4c6c63694m4S6848674n477F7P764544434241404U7        ",
"Y7U7U7U7U7U7U7U7U7O7z3y3x356c6c6c6c6c6c656Y5w3b6c6c6v3u3u4l617t3A7J7D7s3r3q3p3o3n3m3U7U7        ",
"U7U7U7U7U7U7U7U7P5l3c6c6c6c6c6c6c6c6c6c6c6c6c6c6c6c6c6c6k3j3o5A7J7s5i3h3g3f3e3n3d3U7U7U7        ",
"W7U7U7U7U7U7R7c3c6c6c6c6c6c6c6c6c6c6c6c6c6c6c6c6c6c6c6c6c6b3a3J7s5D4Z3Y3X3W3n3V3U3U7U7U7        ",
"V7U7U7U7U7U7T3c6c6c6c6c6c6c6c6c6c6c6c6N6S3R3Q3x4s6P3O3N3M3L3K3D7J3I3H3G3F3n3E3D3U7U7U7U7        ",
"U7U7U7U7U7U7M4c6c6c6c6c6c6c6c6c6x3D6C387;7:7:757B3A7B7H7F7s5Q7U7A3;3:393n38373U7U7U7U7U7        ",
"W7U7U7U7U7U7H6c6c6c6c6c6c6c626v6N7s5C7F7K7J7J7G7K7C7E7Z6p5U7U763534333231303U7U7U7U7U7U7        ",
"Y7U7U7U7U7U7x4c6c6c6c6c6c6c6z2U7U7U7U7R7Q7P7P7P7p5R7U7U7U7U7y2r3x2w2v2u2t2U7U7U7U7U7U7V7        ",
"  U7U7U7U7U7s2Y5c6c6c6c6c6c6K3U7U7U7U7r2N7q2E7s5J3p2R7U7U7o2n2m2l2k2j2i2U7U7U7U7U7U7U7U7        ",
"  U7U7U7U7U7U7W6h2c6c6c6c6c6g2E7Q7f2e2d257o5t3n4c2b2a2Z2p5Y2X2W2V2n3U2U7U7U7U7U7U7U7U7          ",
"  W7U7U7U7U7U7U7m5T2c6c6c6c6c6S2R2c2r5K4k6a596i6Q2l61747P2O2N2M2n3L2K2U7U7U7U7U7U7U7U7          ",
"    U7U7U7U7U7U7U7B7J2c6c6c6c6c6c6I2H2h6;6A6G2A6F2E295D2C2B2A2n3;2:2U7U7U7U7U7U7U7U7V7          ",
"    U7U7U7U7U7U7U7U7U71592c6c6c6c6c6c682k572R562524232221202z1y1x1U7U7U7U7U7U7U7U7U7            ",
"    P4U7U7U7U7U7U7U7U7U7E7w1v5c6c6c6c6c6c6c6v1e5u1t1s1r1q1p1o1n1N7U7U7U7U7U7U7U7U7X7            ",
"      V7U7U7U7U7U7U7U7U7P7H7m1l1k1c6c6c6c6c6c6c6j1i1h1g1f1e1d1c1s5U7U7U7U7U7U7U7U7              ",
"        U7U7U7U7U7U7U7U7Q7J797J5u4b1f6a1Z1H5c6Y1X1W1V1U1T1S136R184U7U7U7U7U7U7U7Y7              ",
"        U7U7U7U7U7U7U7U7U7Q1P1O1k6V625N1C6M1L1K1J1W1I1H1G1c6c6c6Y1F1U7U7U7U7U7S7                ",
"          U7U7U7U7U7U7U7U7Q7K7;7E1V6F2C6D1C1B1A1;1:19181c6c6c6c6c6z4o6U7U7U7U7                  ",
"            V7U7U7U7U771B661g251c6c6c6c6c64131211101z0c6c6c6c6y0G5j6U7U7U7U7Y7                  ",
"              V7U7U7U7U7U7U7U7U7J7x0w0v0s6u0t0s0r0q0p0s6o0I5n0U7U7U7U7U7U7Y7                    ",
"                X7U7U7U7U7U7U7U7U7U7Y7O7m0l0k0n3j0D7p5U7U7U7U7U7U7U7U7S7                        ",
"                  i0U7U7U7U7U7U7P4P4P4h0g0f0e0d0P4P4P4P4U7U7U7U7U7U7c0                          ",
"                    b0a0P4P4P4P4P4P4P4Z0Y0X0W0P4P4P4P4P4P4P4P4P4P4V0                            ",
"                      U0T0S0P4P4P4P4R0Q0X0P0c0c0P4P4P4P4P4P4c0O0N0                              ",
"                      M0M0L0K0J0I0c0H0G0F0c0c0c0c0c0c0P4E0D0C0M0                                ",
"                          M0M0M0B0A0;0:09080706050403020M0M0M0                                  ",
"                                  1000                                                          ",
"                                                                                                ",
"                                                                                                "};
