/* XPM */
static char *image[] = {
"48 48 434 2",
"   c None",
"00 c #1f231b",
"10 c #56563d",
"20 c #3d3d2d",
"30 c #12120d",
"40 c #426242",
"50 c #6b9a5f",
"60 c #f3f397",
"70 c #f2f297",
"80 c #e2e292",
"90 c #b0b077",
":0 c #4f4f37",
";0 c #020201",
"A0 c #0e130e",
"B0 c #538553",
"C0 c #65985b",
"D0 c #eded91",
"E0 c #e7e78b",
"F0 c #bebe74",
"G0 c #17170b",
"H0 c #314531",
"I0 c #559755",
"J0 c #629759",
"K0 c #eaea8e",
"L0 c #ecec90",
"M0 c #ebeb8f",
"N0 c #e0e084",
"O0 c #b7b76b",
"P0 c #040402",
"Q0 c #4f784f",
"R0 c #5e9456",
"S0 c #e6e68a",
"T0 c #dede82",
"U0 c #e8e88c",
"V0 c #585831",
"W0 c #212e21",
"X0 c #599559",
"Y0 c #599053",
"Z0 c #e1e185",
"a0 c #e3e387",
"b0 c #e4e488",
"c0 c #95955d",
"d0 c #456545",
"e0 c #569c56",
"f0 c #579052",
"g0 c #d9d97d",
"h0 c #dfdf83",
"i0 c #dada7e",
"j0 c #dddd81",
"k0 c #5c5c3a",
"l0 c #0f140f",
"m0 c #588a58",
"n0 c #548e4f",
"o0 c #d7d77b",
"p0 c #dbdb7f",
"q0 c #d5d57a",
"r0 c #111109",
"s0 c #0c110c",
"t0 c #385038",
"u0 c #5b9c5b",
"v0 c #508c4e",
"w0 c #d5d579",
"x0 c #d6d67a",
"y0 c #d3d377",
"z0 c #d4d478",
"01 c #b3b368",
"11 c #060606",
"21 c #292f29",
"31 c #4f684f",
"41 c #3e653e",
"51 c #457f45",
"61 c #cece72",
"71 c #c7c76b",
"81 c #d1d175",
"91 c #d2d276",
":1 c #787848",
";1 c #161816",
"A1 c #91a991",
"B1 c #9bc69b",
"C1 c #719f71",
"D1 c #467346",
"E1 c #468146",
"F1 c #4c894b",
"G1 c #cdcd71",
"H1 c #c5c569",
"I1 c #abaf5b",
"J1 c #537a43",
"K1 c #3d843d",
"L1 c #659965",
"M1 c #161e16",
"N1 c #0c100c",
"O1 c #659c65",
"P1 c #86bc86",
"Q1 c #9ac79a",
"R1 c #7eab7e",
"S1 c #376437",
"T1 c #478347",
"U1 c #4a8a4a",
"V1 c #cbcb71",
"W1 c #cccc70",
"X1 c #caca6e",
"Y1 c #aaae5b",
"Z1 c #668345",
"a1 c #428740",
"b1 c #5fa35f",
"c1 c #3c573c",
"d1 c #5b875b",
"e1 c #65aa65",
"f1 c #98c698",
"g1 c #8bb88b",
"h1 c #608d60",
"i1 c #366336",
"j1 c #488548",
"k1 c #498a49",
"l1 c #caca71",
"m1 c #cbcb6f",
"n1 c #acb05d",
"o1 c #637e42",
"p1 c #41843f",
"q1 c #528452",
"r1 c #121912",
"s1 c #1b251b",
"t1 c #5ea65e",
"u1 c #7db67d",
"v1 c #98c598",
"w1 c #6d9a6d",
"x1 c #406e40",
"y1 c #498749",
"z1 c #488e48",
"02 c #7f8f4f",
"12 c #657e42",
"22 c #3f813d",
"32 c #387c38",
"42 c #92a992",
"52 c #a1b5a1",
"62 c #438243",
"72 c #416b41",
"82 c #435d43",
"92 c #5ea55e",
":2 c #94c394",
";2 c #79a679",
"A2 c #4d7b4d",
"B2 c #498949",
"C2 c #438743",
"D2 c #346b34",
"E2 c #3b7a3b",
"F2 c #448c44",
"G2 c #3f793f",
"H2 c #8f998f",
"I2 c #a9a9a9",
"J2 c #b6b6b6",
"K2 c #bfc2bf",
"L2 c #759d75",
"M2 c #376137",
"N2 c #090c09",
"O2 c #5c9f5c",
"P2 c #74b074",
"Q2 c #85b385",
"R2 c #5a875a",
"S2 c #4a8b4a",
"T2 c #3c783c",
"U2 c #397339",
"V2 c #458c45",
"W2 c #4d764d",
"X2 c #7e807e",
"Y2 c #8e8e8e",
"Z2 c #9d9797",
"a2 c #b97575",
"b2 c #b7b4b4",
"c2 c #c4c4c4",
"d2 c #b6c6b6",
"e2 c #3e633e",
"f2 c #58a058",
"g2 c #8aba8a",
"h2 c #679467",
"i2 c #4d8f4d",
"j2 c #376f37",
"k2 c #657b65",
"l2 c #9c5d5d",
"m2 c #d64949",
"n2 c #e45f5f",
"o2 c #c94343",
"p2 c #b7b7b7",
"q2 c #9db49d",
"r2 c #1c261c",
"s2 c #266d26",
"t2 c #6aaa6a",
"u2 c #73a173",
"v2 c #509350",
"w2 c #438643",
"x2 c #3f813f",
"y2 c #5b775b",
"z2 c #808080",
"03 c #8e6767",
"13 c #b82a2a",
"23 c #cf1616",
"33 c #d51515",
"43 c #d71212",
"53 c #c44141",
"63 c #aaaaaa",
"73 c #628162",
"83 c #060c06",
"93 c #266f26",
":3 c #76a976",
";3 c #529652",
"A3 c #3f803f",
"B3 c #747466",
"C3 c #a13b3b",
"D3 c #bb1313",
"E3 c #c21212",
"F3 c #c91212",
"G3 c #d01212",
"H3 c #cd1815",
"I3 c #886156",
"J3 c #687d68",
"K3 c #315c31",
"L3 c #294929",
"M3 c #2e552e",
"N3 c #3c643c",
"O3 c #171e17",
"P3 c #286028",
"Q3 c #61a361",
"R3 c #529852",
"S3 c #428742",
"T3 c #35722a",
"U3 c #a41916",
"V3 c #ab1715",
"W3 c #6b4828",
"X3 c #486831",
"Y3 c #427134",
"Z3 c #3a7b36",
"a3 c #67ab67",
"b3 c #425e42",
"c3 c #162a16",
"d3 c #3f6324",
"e3 c #6b4427",
"f3 c #3f7838",
"g3 c #689d68",
"h3 c #1e271e",
"i3 c #3e763e",
"j3 c #3d843b",
"k3 c #63a963",
"l3 c #486848",
"m3 c #2c362c",
"n3 c #496649",
"o3 c #4c7d4c",
"p3 c #5e8e5e",
"q3 c #050705",
"r3 c #549454",
"s3 c #5d985d",
"t3 c #3b573b",
"u3 c #599759",
"v3 c #162716",
"w3 c #559555",
"x3 c #2b572b",
"y3 c #4f924f",
"z3 c #030603",
"04 c #2d762d",
"14 c #65ae65",
"24 c #3e843e",
"34 c #2f6f2f",
"44 c #8d5734",
"54 c #b3412f",
"64 c #55753d",
"74 c #287128",
"84 c #67ac67",
"94 c #425c42",
":4 c #213e21",
";4 c #8f8031",
"A4 c #ff5e00",
"B4 c #e91a19",
"C4 c #875b47",
"D4 c #347b34",
"E4 c #5fa85f",
"F4 c #67a167",
"G4 c #212b21",
"H4 c #497649",
"I4 c #4b6a4b",
"J4 c #3f5f3f",
"K4 c #8a783e",
"L4 c #bd7331",
"M4 c #346233",
"N4 c #327632",
"O4 c #2c752c",
"P4 c #598959",
"Q4 c #070907",
"R4 c #468546",
"S4 c #387a38",
"T4 c #327132",
"U4 c #297229",
"V4 c #4d964d",
"W4 c #4b704b",
"X4 c #010101",
"Y4 c #010201",
"Z4 c #2d712d",
"a4 c #398139",
"b4 c #377e37",
"c4 c #3d5a3d",
"d4 c #0e190e",
"e4 c #378037",
"f4 c #539c53",
"g4 c #418841",
"h4 c #314a31",
"i4 c #1d391d",
"j4 c #408940",
"k4 c #3f883f",
"l4 c #3a833a",
"m4 c #398239",
"n4 c #3b843b",
"o4 c #499249",
"p4 c #58a158",
"q4 c #438c43",
"r4 c #608c60",
"s4 c #275327",
"t4 c #317a31",
"u4 c #3e873e",
"v4 c #4c954c",
"w4 c #549d54",
"x4 c #5ba45b",
"y4 c #62ab62",
"z4 c #476147",
"05 c #296129",
"15 c #347d34",
"25 c #468f46",
"35 c #337b33",
"45 c #327932",
"55 c #398039",
"65 c #3f873f",
"75 c #4f974f",
"85 c #57a057",
"95 c #5ea75e",
":5 c #5ca55c",
";5 c #509950",
"A5 c #60a960",
"B5 c #1a221a",
"C5 c #122112",
"D5 c #357b35",
"E5 c #418a41",
"F5 c #4b944b",
"G5 c #527f52",
"H5 c #151a15",
"I5 c #436c43",
"J5 c #2e702e",
"K5 c #307430",
"L5 c #255b25",
"M5 c #214f21",
"N5 c #204d20",
"O5 c #214e21",
"P5 c #2e612e",
"Q5 c #478547",
"R5 c #4a924a",
"S5 c #529b52",
"T5 c #5aa35a",
"U5 c #61aa61",
"V5 c #66af66",
"W5 c #6aa16a",
"X5 c #284228",
"Y5 c #438b43",
"Z5 c #496b49",
"a5 c #111c11",
"b5 c #286a28",
"c5 c #255825",
"d5 c #286128",
"e5 c #2e712e",
"f5 c #2d6e2d",
"g5 c #235523",
"h5 c #204f20",
"i5 c #276127",
"j5 c #367b36",
"k5 c #559e55",
"l5 c #479047",
"m5 c #4e974e",
"n5 c #569f56",
"o5 c #5da65d",
"p5 c #64ad64",
"q5 c #67b067",
"r5 c #80a980",
"s5 c #090b09",
"t5 c #344134",
"u5 c #182818",
"v5 c #327a32",
"w5 c #377d37",
"x5 c #3e813e",
"y5 c #428542",
"z5 c #3b823b",
"06 c #2d752d",
"16 c #367f36",
"26 c #4f984f",
"36 c #519a51",
"46 c #59a259",
"56 c #74ad74",
"66 c #4b5b4b",
"76 c #1e341e",
"86 c #468e46",
"96 c #357e35",
":6 c #307930",
";6 c #3d863d",
"A6 c #4a934a",
"B6 c #458e45",
"C6 c #478f47",
"D6 c #639763",
"E6 c #405440",
"F6 c #243e24",
"G6 c #489148",
"H6 c #485e48",
"I6 c #4b6b4b",
"J6 c #387e38",
"K6 c #2f782f",
"L6 c #2b742b",
"M6 c #388138",
"N6 c #448d44",
"O6 c #639163",
"P6 c #1b221b",
"Q6 c #284728",
"R6 c #337c33",
"S6 c #3c853c",
"T6 c #5d8d5d",
"U6 c #1a211a",
"V6 c #2e3c2e",
"W6 c #2d6d2d",
"X6 c #327b32",
"Y6 c #428b42",
"Z6 c #5d795d",
"a6 c #020302",
"b6 c #213521",
"c6 c #336333",
"d6 c #4c8f4c",
"e6 c #232a23",
"f6 c #2a3f2a",
"g6 c #547754",
"h6 c #445444",
"i6 c #050605",
"j6 c #080908",
"k6 c #000000",
"                                                    k6k6                                        ",
"                                    k6k6k6k6k6      k6j6k6k6k6                                  ",
"                                  k6i6h6g6f6k6k6  k6e6d6c6b6a6k6                                ",
"                                  k6Z6Y6X6W6V6U6k6k6T6S6R6R6Q6k6                                ",
"                            k6k6k6P6O6N6M6L6K6J6I6H6G6S6R6R6F6k6                                ",
"                          k6k6E6D6C6B6A6;6:6L6X69686G6S6R6R676k6    k6k6                        ",
"                      k6k666564636A6N626Y616L606z5y5x5w5v5R6u5k6k6k6t5k6k6                      ",
"                    k6s5r5q5p5o5n5m5l5k5G6j5i5h5g5f5e5d5c5b5a5k6k6Z5Y5X5k6                      ",
"                    k6W5V5V5V5U5T5S5R5Q5P5O5N5N5M5L5K5R6R6J5I5H5G5F5E5D5C5k6                    ",
"                  k6B5A5;5:5V5V5958575866555454535R6R6R6R6R6R65525m5E51505k6                    ",
"                  k6z4A5T5n5G695y4x4w4v4B6u416R6R6R615R6t4:6:6K6K615E515s4k6                    ",
"                k6k6r4A5T5n5;5A6q4x4p436o4Y6n496X615m4l4n4S6u4k4j4Y61515i4k6                    ",
"              k6k6h4g4B6T5n5;5F525u4k4f4m5Y61516e4M6l4n4S6;6u4j4E5Y6m415d4k6                    ",
"            k6k6c4R525Y6n4F5;5F525E5S6X616159616b4a4l4S6;6u4k4j4Y6q4N6Z4Y4k6                    ",
"          k6X4W436V4o4B6j4n416o425E5S6U4159616T4S4l4n4S6u4k4j4E5Y6N6B6R4Y4k6k6k6                ",
"        k6Q4P4p4w4;5v4G6N6j4S61516E5S6O415N4M4L4K4l4S6;6u4j4E5Y6q4N625l5J4I4H4a6k6              ",
"    k6k6G4F4E4x485f426F525Y6u4l416O4O415D4C4B4A4;4n4S6u4k4j4Y6q4N6B625G6q4S5j4:4k6              ",
"    k69484V5y495T5n5S5m5A625E5;6M674K61516645444n4S6;6u4j4E5Y6N6B625l5G6A6k4j434a6k6            ",
"    k624S5V514U5o546k5;5v4G6N6R604R6159616M6m4l4S6;6u4k4j4Y6q4N625l5G6o4A6q4k4Z4z3k6            ",
"    k6y3v4j4o5p5A5:5p4w4;5j404R6R6159616e4M6l4n4S6u4k4j4E5Y6N6B625G6o4A6F5v4R6x3k6              ",
"    k6w33636v4Y6A5E4T5G6R6R6R6R6R61516e4M6m4l4S6;6u4j4E5Y6q4N625l5G6A6F5v4V4q4v3k6              ",
"    k6u3k5k5k5w4o4E596R6R6R6R6R6159616M6m4l4n4S6u4k4j4Y6q4N6B625G6o4A6v4V4m526t3k6              ",
"    k6s3T5464646p4e4R6R6R6R6R6R61516e4M6l4n4S6;6u4j4E5Y6N6B625l5G6A6F5v4m526;5r3q3k6k6          ",
"    k6p39595o5o5o5m4R6R6R6R6R6159616M6m4l4S6;6u4k4j4Y6q4N625l5G6o4A6v4V4m5;536S5o3n3m3k6        ",
"    k6Y4l3k3y4U5U5n4R6R6R6R6159616e4M6l4n4S6j3k4j4E5Y6N6B625G6o4A6F5v4m526;5S5f4v4V4i3k6        ",
"      k6k6h3g3V514;6R6R6R6R61516e4M6m4l4f3e3d3j4E5Y6q4N686l5G6A6F5v4V4m5;536S5w4k5;6l4c3k6      ",
"          k6k6b3a3;6R6R6R6159616Z3Y3X3W3V3U3T3j4Y6q4N6B6S3G6o4A6v4V4m526R3Q3f4w4n5V4M6P3k6      ",
"            k6k6O3N3M3L3K3J3I3H3G3F3E3D3C3B3n4E5Y6N6B625A3G6A6F5v4m526;5;3:3w4k5n5p4X69383k6    ",
"                k6k6k6k67363534333231303z2y2j4Y6q4N625x2w2o4A6v4V4m5;536v2u2t2n585p4m5s2a6k6    ",
"                    k6r2q2p2o2n2m2l2z2z2k2K5E5Y6N6B625j2o4A6F5v4m526;5S5i2h2g2f2p446T534k6      ",
"                    k6e2d2c2b2a2Z2Y2X2W2t4E5Y6q4N6V2U2T2A6F5v4V4m5;536S5S2R2Q2P2p4T5x4O2N2k6    ",
"                    k6M235L2K2J2I2H2G2M6j4Y6q4F2E2D2C2o4A6v4V4m526;5S5f4B2A2;2:292T5:5o582k6    ",
"                    k67225N662524232S6j4E5Y6221202z1G6A6F5v4m526;536S5w4y1x1w1v1u1x4:5t1s1k6    ",
"                    k6r1q1S5f4B696u4k4j4p1o1n1m1l1k1o4A6v4V4m5;536S5f4w4j1i1h1g1f1e1o5d1k6k6    ",
"                      k6k6c1b195l4k4a1Z1Y1X1W1W1V1U1A6F5v4m526;5S5f4w4k5T1S1G5R1Q1P1O1N1k6      ",
"                        k6k6M1L1K1J1I1H1G1G1G1W1W1F1F5v4V4m5;536S5w4k5n5E1S1D1C1B1A1;1k6k6      ",
"                            k6X4r1:191817171X1W161F1v4V4m526;5S5f4w4n58551S141312111k6k6        ",
"                              k6k601z0y0x0x0w0w0w0v0v4m526;536S5w4k5n5u0t0s0k6k6k6k6            ",
"                              k6r0q0p0w081o0o0x0o0n0V4m5;536S5f4w4n5m0l0k6k6k6k6                ",
"                              k6k0j0i0h0g0o0g0j0j0f0m526;5S5f4w4e0d0k6k6k6                      ",
"                              k6c0b0j0i0a0Z0j0j0h0Y0m5;536S5w4X0W0k6k6k6                        ",
"                              k6V0Z0U0h0g0T0b0S0S0R026;5S5w4Q0q3k6k6                            ",
"                              k6P0O0N0M0L0M0M0M0K0J0;536I0H0k6k6k6                              ",
"                              k6k6G0F0j0Z0b0E0K0D0C036B0A0k6k6k6                                ",
"                                k6k6;0:090807060605040k6k6k6                                    ",
"                                  k6k6k6k6k630201000k6k6k6                                      ",
"                                      k6k6k6k6k6k6k6k6k6                                        ",
"                                              k6k6k6                                            "};
