/* XPM */
static char *image[] = {
"48 48 560 2",
"   c None",
"00 c #0d0701",
"10 c #7d470a",
"20 c #956210",
"30 c #110b02",
"40 c #020100",
"50 c #b16528",
"60 c #f6a420",
"70 c #e6971e",
"80 c #5b3d0d",
"90 c #351201",
":0 c #a06e4b",
";0 c #f6a625",
"A0 c #f6a627",
"B0 c #f6a728",
"C0 c #ba7d1e",
"D0 c #241806",
"E0 c #79310d",
"F0 c #96735d",
"G0 c #f0a42c",
"H0 c #f6a92c",
"I0 c #f7a92d",
"J0 c #f7aa2e",
"K0 c #f2a62e",
"L0 c #7e5618",
"M0 c #090602",
"N0 c #100600",
"O0 c #9b4d27",
"P0 c #997e6f",
"Q0 c #dd9836",
"R0 c #f7ab31",
"S0 c #f7ac32",
"T0 c #f7ac33",
"U0 c #f7ac34",
"V0 c #f7ad35",
"W0 c #d8952e",
"X0 c #3f2c0e",
"Y0 c #561e02",
"Z0 c #925b3f",
"a0 c #9a8478",
"b0 c #ca883b",
"c0 c #f7ad36",
"d0 c #f7ae37",
"e0 c #f7ae38",
"f0 c #f7af39",
"g0 c #f7af3a",
"h0 c #f8b03b",
"i0 c #a57227",
"j0 c #171106",
"k0 c #9f3805",
"l0 c #896655",
"m0 c #9e8d83",
"n0 c #bb7a3a",
"o0 c #f7b03b",
"p0 c #f8b03c",
"q0 c #f8b13d",
"r0 c #f8b13e",
"s0 c #f8b13f",
"t0 c #eba83f",
"u0 c #5c4319",
"v0 c #020101",
"w0 c #2d1001",
"x0 c #a64414",
"y0 c #90796d",
"z0 c #a0948d",
"01 c #b06b35",
"11 c #f8b240",
"21 c #f8b241",
"31 c #f8b342",
"41 c #f8b343",
"51 c #f8b444",
"61 c #f8b548",
"71 c #f8b64a",
"81 c #ca923b",
"91 c #2e220e",
":1 c #762903",
";1 c #8a4829",
"A1 c #a09a96",
"B1 c #a49d98",
"C1 c #a95c29",
"D1 c #f8b445",
"E1 c #f8b546",
"F1 c #f8b547",
"G1 c #f8b648",
"H1 c #f8b649",
"I1 c #f9b74d",
"J1 c #f9b84f",
"K1 c #f7b750",
"L1 c #8b652c",
"M1 c #0a0703",
"N1 c #0c0401",
"O1 c #b74409",
"P1 c #7a513d",
"Q1 c #a7a7a7",
"R1 c #a6a4a2",
"S1 c #a34e1a",
"T1 c #f9b64a",
"U1 c #f9b74b",
"V1 c #f9b74c",
"W1 c #f9b84d",
"X1 c #f9b84e",
"Y1 c #f9b94f",
"Z1 c #f9b951",
"a1 c #f9ba53",
"b1 c #f9bb54",
"c1 c #e4aa4e",
"d1 c #4c391b",
"e1 c #4f1f05",
"f1 c #bb4b10",
"g1 c #785c4d",
"h1 c #ababab",
"i1 c #a0420b",
"j1 c #f7b84e",
"k1 c #f9b950",
"l1 c #f9ba51",
"m1 c #f9ba52",
"n1 c #f9bb53",
"o1 c #f9bc58",
"p1 c #b48641",
"q1 c #1a140a",
"r1 c #9c400e",
"s1 c #a15025",
"t1 c #8a6d5e",
"u1 c #aeaeae",
"v1 c #a1450f",
"w1 c #e6aa53",
"x1 c #f9bb55",
"y1 c #f9bc56",
"z1 c #f9bc57",
"02 c #f9bd59",
"12 c #fabd5a",
"22 c #fabe5c",
"32 c #fac263",
"42 c #f3bb62",
"52 c #73582e",
"62 c #040302",
"72 c #261004",
"82 c #c45415",
"92 c #855439",
":2 c #9e897d",
";2 c #b2b2b2",
"A2 c #a24b18",
"B2 c #d49a54",
"C2 c #fabe5a",
"D2 c #fabe5b",
"E2 c #fabf5d",
"F2 c #fabf5e",
"G2 c #fac161",
"H2 c #d4a358",
"I2 c #312716",
"J2 c #75340f",
"K2 c #c75919",
"L2 c #68564c",
"M2 c #b1aba8",
"N2 c #b5b5b5",
"O2 c #a45221",
"P2 c #c6884e",
"Q2 c #fac05f",
"R2 c #fac060",
"S2 c #fac162",
"T2 c #fac163",
"U2 c #fac265",
"V2 c #fbc468",
"W2 c #fac772",
"X2 c #4f3f24",
"Y2 c #080401",
"Z2 c #bd581b",
"a2 c #bb5d24",
"b2 c #695b53",
"c2 c #b9b9b9",
"d2 c #a5582a",
"e2 c #b97845",
"f2 c #fac264",
"g2 c #fac366",
"h2 c #fac367",
"i2 c #fac468",
"j2 c #fbc469",
"k2 c #fbc56a",
"l2 c #fbc66c",
"m2 c #fbc76e",
"n2 c #fbc771",
"o2 c #fbc873",
"p2 c #b99559",
"q2 c #4b240c",
"r2 c #cb6321",
"s2 c #9f6037",
"t2 c #7f6859",
"u2 c #bcbcbc",
"v2 c #bdbdbd",
"w2 c #a85f34",
"x2 c #b06736",
"y2 c #fbc46a",
"z2 c #fbc56b",
"03 c #fbc56c",
"13 c #fbc66d",
"23 c #fbc66e",
"33 c #facc7d",
"43 c #1f190f",
"53 c #9b4f1c",
"63 c #cd6825",
"73 c #825f49",
"83 c #967d6d",
"93 c #c0c0c0",
":3 c #aa663e",
";3 c #a85623",
"A3 c #fbc76f",
"B3 c #fbc770",
"C3 c #fbc871",
"D3 c #fbc872",
"E3 c #fbc973",
"F3 c #fbca75",
"G3 c #fccb77",
"H3 c #fccc7c",
"I3 c #7e6843",
"J3 c #211207",
"K3 c #cf6d29",
"L3 c #ce6d2a",
"M3 c #655e59",
"N3 c #ac9a8c",
"O3 c #c4c4c4",
"P3 c #ad6e49",
"Q3 c #a2450d",
"R3 c #fbc974",
"S3 c #fbc975",
"T3 c #fbca76",
"U3 c #fbca77",
"V3 c #fccb78",
"W3 c #fccb79",
"X3 c #fccd7e",
"Y3 c #fdd186",
"Z3 c #deb979",
"a3 c #713d18",
"b3 c #d1712d",
"c3 c #ba6e38",
"d3 c #605f5e",
"e3 c #c1bcb9",
"f3 c #c7c7c7",
"g3 c #b07654",
"h3 c #f0be75",
"i3 c #fccc7a",
"j3 c #fccc7b",
"k3 c #fccd7c",
"l3 c #fccd7d",
"m3 c #fcce7e",
"n3 c #fccf80",
"o3 c #fdd48e",
"p3 c #443a27",
"q3 c #040201",
"r3 c #c16c2d",
"s3 c #d37631",
"t3 c #9b6b47",
"u3 c #71665d",
"v3 c #cbcbcb",
"w3 c #b47e5f",
"x3 c #deac6f",
"y3 c #fcce7f",
"z3 c #fcce80",
"04 c #fccf81",
"14 c #fccf82",
"24 c #fcd083",
"34 c #fdd187",
"44 c #fdd289",
"54 c #a68d62",
"64 c #462811",
"74 c #d67b35",
"84 c #7e6756",
"94 c #897465",
":4 c #cecece",
";4 c #b78669",
"A4 c #cf9a65",
"B4 c #fcd084",
"C4 c #fcd185",
"D4 c #fcd186",
"E4 c #fdd287",
"F4 c #fdd288",
"G4 c #fdd389",
"H4 c #fdd58e",
"I4 c #fdd690",
"J4 c #fed897",
"K4 c #fed999",
"L4 c #f6d395",
"M4 c #120f0b",
"N4 c #9a5b29",
"O4 c #d88039",
"P4 c #d17e3b",
"Q4 c #656462",
"R4 c #a18b79",
"S4 c #d2d2d2",
"T4 c #bc8f75",
"U4 c #b56d3e",
"V4 c #f1c482",
"W4 c #fdd38a",
"X4 c #fdd38b",
"Y4 c #fdd48c",
"Z4 c #fdd48d",
"a4 c #fdd58f",
"b4 c #fdd590",
"c4 c #fdd692",
"d4 c #fdd793",
"e4 c #6c5e44",
"f4 c #1b1007",
"g4 c #d8843d",
"h4 c #da853d",
"i4 c #b67b49",
"j4 c #656565",
"k4 c #baaa9c",
"l4 c #d5d5d5",
"m4 c #c09881",
"n4 c #bc7a4c",
"o4 c #e4b77f",
"p4 c #fdd691",
"q4 c #fdd792",
"r4 c #fdd794",
"s4 c #fdd895",
"t4 c #fed896",
"u4 c #fed997",
"v4 c #fed998",
"w4 c #feda99",
"x4 c #fedb9b",
"y4 c #fedc9d",
"z4 c #fedca0",
"05 c #fedda2",
"15 c #ceb485",
"25 c #6e4520",
"35 c #dc8a41",
"45 c #987556",
"55 c #686767",
"65 c #d3cfcc",
"75 c #d9d9d9",
"85 c #d8d5d4",
"95 c #c6a592",
":5 c #b16c43",
";5 c #a2430b",
"A5 c #b26737",
"B5 c #d6a574",
"C5 c #fbd596",
"D5 c #feda9a",
"E5 c #feda9b",
"F5 c #fedb9c",
"G5 c #fedb9d",
"H5 c #fedc9e",
"I5 c #fedc9f",
"J5 c #fedda0",
"K5 c #fedea4",
"L5 c #ffdfa6",
"M5 c #312b21",
"N5 c #030201",
"O5 c #c67f3d",
"P5 c #de8f45",
"Q5 c #7b6e63",
"R5 c #7a7067",
"S5 c #dcdcdc",
"T5 c #d9d4d1",
"U5 c #c6a18c",
"V5 c #b26d44",
"W5 c #a24109",
"X5 c #a74e1a",
"Y5 c #ca9165",
"Z5 c #f2ce97",
"a5 c #fedda1",
"b5 c #fedea2",
"c5 c #fedea3",
"d5 c #fedfa4",
"e5 c #ffdfa5",
"f5 c #ffe0a7",
"g5 c #ffe2ab",
"h5 c #938263",
"i5 c #3f2a15",
"j5 c #e09449",
"k5 c #d18e4d",
"l5 c #6a6a6a",
"m5 c #938271",
"n5 c #e0e0e0",
"o5 c #dbd3ce",
"p5 c #c4997f",
"q5 c #af6336",
"r5 c #a13f05",
"s5 c #a2420a",
"t5 c #be7e52",
"u5 c #e7bf90",
"v5 c #ffe0a8",
"w5 c #ffe1a9",
"x5 c #ffe1aa",
"y5 c #edd2a0",
"z5 c #080705",
"06 c #986634",
"16 c #e2984d",
"26 c #b38659",
"36 c #6b6b6b",
"46 c #ad9a88",
"56 c #e3e3e3",
"66 c #ddd3cd",
"76 c #c69b81",
"86 c #ae5f30",
"96 c #a03d03",
":6 c #b46a3b",
";6 c #d9ab80",
"A6 c #fcdea9",
"B6 c #594f3c",
"C6 c #140e07",
"D6 c #e0994f",
"E6 c #e59d51",
"F6 c #947c63",
"G6 c #6d6d6d",
"H6 c #a4927f",
"I6 c #dbd5cf",
"J6 c #e7e7e7",
"K6 c #ddcfc6",
"L6 c #c39275",
"M6 c #ac5929",
"N6 c #a84f1c",
"O6 c #cd966c",
"P6 c #f4d4a1",
"Q6 c #bba67e",
"R6 c #694a27",
"S6 c #e7a255",
"T6 c #897a69",
"U6 c #6f6f6f",
"V6 c #707070",
"W6 c #737271",
"X6 c #8f8376",
"Y6 c #b8aa99",
"Z6 c #dfdad5",
"a6 c #eaeaea",
"b6 c #ebebeb",
"c6 c #dfcfc5",
"d6 c #c38f70",
"e6 c #ac5828",
"f6 c #c18156",
"g6 c #c9a273",
"h6 c #fde0ab",
"i6 c #1f1b15",
"j6 c #010100",
"k6 c #c58d4b",
"l6 c #e9a759",
"m6 c #daa05c",
"n6 c #ba9263",
"o6 c #9b856b",
"p6 c #7f7972",
"q6 c #757575",
"r6 c #787775",
"s6 c #9a8c7c",
"t6 c #c2b3a1",
"u6 c #e4e0db",
"v6 c #eeeeee",
"w6 c #eeeded",
"x6 c #dcc4b7",
"y6 c #5b2302",
"z6 c #7e3d13",
"07 c #a6794e",
"17 c #f8daa5",
"27 c #807156",
"37 c #382916",
"47 c #ebac5d",
"57 c #eaab5d",
"67 c #d4a262",
"77 c #b5946a",
"87 c #988772",
"97 c #807d79",
":7 c #7d7c7b",
";7 c #9f9281",
"A7 c #c6b7a5",
"B7 c #e9e4df",
"C7 c #f2f2f2",
"D7 c #010000",
"E7 c #2b1001",
"F7 c #602c0b",
"G7 c #916139",
"H7 c #e1c08e",
"I7 c #e0c797",
"J7 c #020201",
"K7 c #956f3d",
"L7 c #edb161",
"M7 c #ecb161",
"N7 c #d7a767",
"O7 c #b9996f",
"P7 c #9d8d78",
"Q7 c #87847f",
"R7 c #a29685",
"S7 c #c9bca9",
"T7 c #ede8e3",
"U7 c #f5f5f5",
"V7 c #030100",
"W7 c #311505",
"X7 c #745336",
"Y7 c #c6a477",
"Z7 c #ffe2ac",
"a7 c #453d2f",
"b7 c #0f0b06",
"c7 c #e7b061",
"d7 c #efb665",
"e7 c #ecb566",
"f7 c #d2a86d",
"g7 c #b79c76",
"h7 c #9d907f",
"i7 c #a99c8b",
"j7 c #cdbfad",
"k7 c #f0ece6",
"l7 c #f9f9f9",
"m7 c #050200",
"n7 c #403120",
"o7 c #574a38",
"p7 c #634d2b",
"q7 c #f1ba69",
"r7 c #f1bb69",
"s7 c #f2bb69",
"t7 c #edb96b",
"u7 c #cfab74",
"v7 c #b69f7d",
"w7 c #bdac91",
"x7 c #d1c5b1",
"y7 c #e4e4e4",
"z7 c #fcfcfc",
"08 c #c49a58",
"18 c #f4bf6d",
"28 c #f4c06d",
"38 c #ba9459",
"48 c #313131",
"58 c #626262",
"68 c #9e9e9e",
"78 c #e5e5e5",
"88 c #ffffff",
"98 c #130f09",
":8 c #3f321d",
";8 c #65512f",
"A8 c #917342",
"B8 c #b79254",
"C8 c #e3b568",
"D8 c #f6c471",
"E8 c #b99455",
"F8 c #3d301c",
"G8 c #1b160c",
"H8 c #524126",
"I8 c #896d3f",
"J8 c #bf9858",
"K8 c #efc06e",
"L8 c #f6c571",
"M8 c #64502e",
"N8 c #101010",
"O8 c #494949",
"P8 c #959595",
"Q8 c #131009",
"R8 c #3f331e",
"S8 c #665330",
"T8 c #3d321d",
"U8 c #070603",
"V8 c #372d1a",
"W8 c #6e5934",
"X8 c #a5864e",
"Y8 c #ddb368",
"Z8 c #f8c975",
"a8 c #f8ca75",
"b8 c #f1c472",
"c8 c #120e08",
"d8 c #211b10",
"e8 c #5c4c2d",
"f8 c #8e7545",
"g8 c #c8a561",
"h8 c #a78951",
"i8 c #000000",
"                                                                                                ",
"                                                                                                ",
"                                                                                                ",
"                                                                                                ",
"                                      i8                                                        ",
"                                    i8i8i8i8i8i8                                                ",
"                                    i8h8g8f8e8d8i8i8i8i8i8            i8i8i8i8                  ",
"                      i8i8i8i8    i8c8b8a8Z8Z8Z8Y8X8W8V8U8i8i8i8i8i8i8T8S8R8Q8i8i8i8i8i8i8      ",
"                    i8i8P8O8N8i8i8i8M8L8L8L8L8L8L8L8L8L8K8J8I8H8G8F8E8D8D8D8D8C8B8A8;8:898i8i8  ",
"i8i8                i8i8888878685848382828282828282828282828282828282828181818181818181808i8    ",
"i8i8i8i8i8          i8i8z7z7z7z7z7y7x7w7v7u7t7s7s7s7s7s7s7s7s7s7s7r7r7r7r7r7r7r7r7r7r7q7p7i8    ",
"  i8o7n7m7i8i8i8    i8i8l7l7l7l7l7l7l7l7k7j7i7h7g7f7e7d7d7d7d7d7d7d7d7d7d7d7d7d7d7d7d7c7b7i8    ",
"  i8a7Z7Y7X7W7V7i8i8i8i8U7U7U7U7U7U7U7U7U7U7U7T7S7R7Q7P7O7N7M7L7L7L7L7L7L7L7L7L7L7L7L7K7i8      ",
"    J7I7Z7Z7H7G7F7E7D7i8C7C7C7C7C7C7C7C7C7C7C7C7C7C7B7A7;7:79787776757474747474747474737i8      ",
"    i827Z7Z7Z7Z71707z6y6x6w6v6v6v6v6v6v6v6v6v6v6v6v6v6v6v6u6t6s6r6q6p6o6n6m6l6l6l6l6k6j6i8      ",
"    i8i6h6Z7Z7Z7Z7Z7Z7g6f6e6d6c6b6b6b6b6b6b6b6b6b6a6a6a6a6a6a6a6Z6Y6X6W6V6U6T6S6S6S6R6i8        ",
"      i8Q6Z7Z7Z7Z7Z7Z7Z7Z7P6O6N6M6L6K6J6J6J6J6J6J6J6J6J6J6J6J6J6J6J6J6I6H6G6F6E6E6D6C6i8        ",
"      i8B6Z7Z7Z7Z7Z7Z7Z7Z7Z7Z7A6;6:6968676665656565656565656565656565656463626161606i8          ",
"      i8z5y5Z7Z7Z7Z7Z7Z7Z7Z7Z7x5w5v5u5t5s5r5q5p5o5n5n5n5n5n5n5n5n5n5n5n5m5l5k5j5j5i5i8          ",
"        i8h5Z7Z7Z7Z7g5x5w5v5f5e5d5c5b5a5Z5Y5X596W5V5U5T5S5S5S5S5S5S5S5S5R5Q5P5P5O5N5i8          ",
"        i8M5x5w5v5f5L5e5K5c5a5J5I5H5G5F5E5D5C5B5A59696;5:5958575757575655545353525i8            ",
"          i815K5c505a5z4I5y4F5x4D5w4v4u4t4s4r4q4p4o4n4s59696m4l4l4l4l4k4j4i4h4g4f4i8            ",
"          i8e4I5H5G5F5E5w4v4u4t4s4r4d4c4p4b4a4Z4Y4X4W4V4U496T4S4S4S4S4R4Q4P4O4N4i8              ",
"          i8M4L4K4v4J4t4r4d4q4p4I4a4H4Z4Y4X4G4F4E4D4C4B4A496;4:4:4:4:49484747464i8              ",
"            i854r4d4c4I4a4H4Z4Y4X4W444F434C4B4241404z3y3x396w3v3v3v3v3u3t3s3r3q3i8              ",
"            i8p3a4o3Y4X4W444F4E4D4C4B42414n3y3m3l3k3j3i3h396g3f3f3f3e3d3c3b3a3i8                ",
"              J7Z3F4E4Y3C4B4241404z3y3X3k3j3i3W3V3U3T3S3R3Q3P3O3O3O3N3M3L3K3J3i8                ",
"              i8I3241404z3y3X3l3H3j3i3V3G3T3F3R3E3D3C3B3A3;3:393939383736353i8i8                ",
"              i84333l3k3j3i3W3V3U3T3R3E3D3C3B3A3231303z2y2x2w2v2u2u2t2s2r2q2i8                  ",
"                i8p2V3U3T3S3R3o2D3n2A3m213l2z2k2j2i2h2g2f2e2d2c2c2c2b2a2Z2Y2i8                  ",
"                i8X2W2D3C3B3A32313z2k2j2V2h2g2U2f2T2S2R2Q2P2O2N2N2M2L2K2J2i8                    ",
"                i8i8I2H203z2y2j2h2g2U2f2T2S2G2R2Q2F2E2D2C2B2A2;2;2:2928272i8                    ",
"                    i8625242U232S2G2R2Q2F2E222D21202z1y1x1w1v1u1u1t1s1r1i8i8                    ",
"                      i8i8q1p1F2E222D21202o1z1y1x1n1m1l1k1j1i1h1h1g1f1e1i8                      ",
"                          i8i8d1c1z1y1x1b1a1m1Z1Y1X1W1V1U1T1S1R1Q1P1O1N1i8                      ",
"                              i8M1L1K1k1J1X1I1V1T1H1G1F1E1D1C1B1A1;1:1i8i8                      ",
"                                i8i8918171H161E1D1514131211101z0y0x0w0i8                        ",
"                                    i8v0u0t0312111s0r0q0p0o0n0m0l0k0D7i8                        ",
"                                      i8i8j0i0p0h0g0f0e0d0c0b0a0Z0Y0i8i8                        ",
"                                          i8i8X0W0V0U0T0S0R0Q0P0O0N0i8                          ",
"                                              i8M0L0K0J0I0H0G0F0E0i8i8                          ",
"                                                i8i8D0C0B0A0;0:090i8                            ",
"                                                    i8j68070605040i8                            ",
"                                                      i8i8302010i8i8                            ",
"                                                          i8i800i8                              ",
"                                                              i8i8                              ",
"                                                                                                ",
"                                                                                                "};
