/* XPM */
static char *image[] = {
"48 48 708 2",
"   c None",
"00 c #727478",
"10 c #f1f0f0",
"20 c #f1f1f0",
"30 c #f1f2f1",
"40 c #f2f2f3",
"50 c #f3f3f2",
"60 c #f5f4f5",
"70 c #f0f1f0",
"80 c #f0f1f1",
"90 c #f1f2f2",
":0 c #f6f7f7",
";0 c #f13f07",
"A0 c #f25906",
"B0 c #f18106",
"C0 c #f2a905",
"D0 c #f3c804",
"E0 c #f3d003",
"F0 c #f3cc04",
"G0 c #f3a603",
"H0 c #f35004",
"I0 c #f31305",
"J0 c #f30105",
"K0 c #f40005",
"L0 c #e20004",
"M0 c #e60004",
"N0 c #ef0005",
"O0 c #f50005",
"P0 c #f60d06",
"Q0 c #f61705",
"R0 c #f64d04",
"S0 c #f79103",
"T0 c #f7bb03",
"U0 c #f7b804",
"V0 c #f79f02",
"W0 c #f87b03",
"X0 c #f85604",
"Y0 c #f83b04",
"Z0 c #f93704",
"a0 c #f93505",
"b0 c #fa3105",
"c0 c #fa2305",
"d0 c #fa1c06",
"e0 c #fa1706",
"f0 c #fb0e05",
"g0 c #fb0405",
"h0 c #fb0005",
"i0 c #f2a007",
"j0 c #f1c607",
"k0 c #f2e904",
"l0 c #f2f20a",
"m0 c #f2f21f",
"n0 c #f2f233",
"o0 c #f3f32f",
"p0 c #f3f31f",
"q0 c #f3de0e",
"r0 c #f4a105",
"s0 c #f47402",
"t0 c #f55801",
"u0 c #f54b02",
"v0 c #f54b01",
"w0 c #f55b02",
"x0 c #f56502",
"y0 c #f66401",
"z0 c #f68603",
"01 c #f7ab06",
"11 c #f6d70b",
"21 c #f7f61d",
"31 c #f7f732",
"41 c #f8f837",
"51 c #f8f82e",
"61 c #f8f11a",
"71 c #f8db0e",
"81 c #f9c407",
"91 c #f9be06",
":1 c #fabb06",
";1 c #faa804",
"A1 c #fa9903",
"B1 c #fb8b03",
"C1 c #fa8203",
"D1 c #fb7605",
"E1 c #fb5d05",
"F1 c #fb3205",
"G1 c #f2b206",
"H1 c #f2ed06",
"I1 c #f3f219",
"J1 c #f2f24b",
"K1 c #f3f384",
"L1 c #f3f3a0",
"M1 c #f3f39d",
"N1 c #f4f489",
"O1 c #f4f46e",
"P1 c #f4f454",
"Q1 c #f4f24d",
"R1 c #f5ea4f",
"S1 c #f5e650",
"T1 c #f5e654",
"U1 c #f5ed52",
"V1 c #f6ef4e",
"W1 c #f6ef4f",
"X1 c #f6f756",
"Y1 c #f7f75e",
"Z1 c #f7f67b",
"a1 c #f8f7a7",
"b1 c #f8f7c5",
"c1 c #f8f8cb",
"d1 c #f9f8be",
"e1 c #f8f9a0",
"f1 c #f9f978",
"g1 c #f9f960",
"h1 c #faf958",
"i1 c #fafa4d",
"j1 c #faf33c",
"k1 c #fae82b",
"l1 c #fadc22",
"m1 c #fada16",
"n1 c #fbd40c",
"o1 c #fbbc06",
"p1 c #fc9505",
"q1 c #f1f1f1",
"r1 c #f2bf04",
"s1 c #f2ef16",
"t1 c #f2f34e",
"u1 c #f3f395",
"v1 c #f3f2d3",
"w1 c #f3f3e6",
"x1 c #f4f4e9",
"y1 c #f4f4e8",
"z1 c #f4f4d6",
"02 c #f4f4d9",
"12 c #f4f4e1",
"22 c #f5f5e5",
"32 c #f6f6e7",
"42 c #f6f5e6",
"52 c #f6f5e3",
"62 c #f6f6e5",
"72 c #f7f6e7",
"82 c #f7f7e9",
"92 c #f7f7f4",
":2 c #f9f9e3",
";2 c #f9fadb",
"A2 c #fafac8",
"B2 c #fafaaa",
"C2 c #fafa88",
"D2 c #fbfb75",
"E2 c #fbfb5c",
"F2 c #fcfa40",
"G2 c #fce21d",
"H2 c #fcb906",
"I2 c #f2f1f2",
"J2 c #f2d61d",
"K2 c #f2f24c",
"L2 c #f3f385",
"M2 c #f2f3c1",
"N2 c #fafaf8",
"O2 c #fbfae2",
"P2 c #fbfbc7",
"Q2 c #fbfba5",
"R2 c #fcfb79",
"S2 c #fceb48",
"T2 c #fcb91d",
"U2 c #f3ec56",
"V2 c #f2f288",
"W2 c #f3f3b7",
"X2 c #f3f2e3",
"Y2 c #f3f4f3",
"Z2 c #f9f8f9",
"a2 c #fbfbea",
"b2 c #fcfcb9",
"c2 c #fcfa81",
"d2 c #fcd04b",
"e2 c #f2f28d",
"f2 c #f2f3be",
"g2 c #f3f2e4",
"h2 c #f7f8f7",
"i2 c #f8f9f8",
"j2 c #fafbfb",
"k2 c #fcfcf3",
"l2 c #fcfcc1",
"m2 c #fdeb82",
"n2 c #f2f2b2",
"o2 c #f2f3df",
"p2 c #f6f6f5",
"q2 c #f7f8f8",
"r2 c #f9faf9",
"s2 c #fdfcee",
"t2 c #fcfdb7",
"u2 c #f2f2f2",
"v2 c #f3f3c4",
"w2 c #f3f3ed",
"x2 c #f4f3f3",
"y2 c #f7f7f6",
"z2 c #f7f7f8",
"03 c #f8f9f9",
"13 c #faf9fa",
"23 c #f9f9fa",
"33 c #fcfddf",
"43 c #f2f3f2",
"53 c #f3f3c6",
"63 c #f3f3ef",
"73 c #f3f3f4",
"83 c #f4f4f5",
"93 c #f9f8f8",
":3 c #f8f8f9",
";3 c #fafafb",
"A3 c #fdfdf8",
"B3 c #f3f3c0",
"C3 c #f4f3e3",
"D3 c #f3f4f4",
"E3 c #f5f6f5",
"F3 c #f7f6f7",
"G3 c #f8f7f7",
"H3 c #f8f7f8",
"I3 c #f8f8f8",
"J3 c #f8f8f7",
"K3 c #f8f9f1",
"L3 c #f9f9f9",
"M3 c #faf9f9",
"N3 c #f3f3b0",
"O3 c #f4f3d2",
"P3 c #f3f4f0",
"Q3 c #f4f5f5",
"R3 c #f6f6f7",
"S3 c #f7f8f2",
"T3 c #f8f8eb",
"U3 c #f8f8e5",
"V3 c #f8f8de",
"W3 c #f8f8bb",
"X3 c #f9f9aa",
"Y3 c #f9f9cd",
"Z3 c #f9f9ef",
"a3 c #f9fafa",
"b3 c #f3f398",
"c3 c #f4f4ce",
"d3 c #f7f7f7",
"e3 c #f7f7e7",
"f3 c #f7f8c1",
"g3 c #f8f8a5",
"h3 c #f8f89a",
"i3 c #f8f895",
"j3 c #f8f983",
"k3 c #f9f963",
"l3 c #f9f95c",
"m3 c #f9f989",
"n3 c #faf9c4",
"o3 c #fafaef",
"p3 c #fafbfa",
"q3 c #fbfafb",
"r3 c #fbfbfa",
"s3 c #f2f3f3",
"t3 c #f4f48d",
"u3 c #f4f4dc",
"v3 c #f5f4f4",
"w3 c #f7f6f6",
"x3 c #f6f7f6",
"y3 c #f7f7e0",
"z3 c #f7f79f",
"04 c #f8f775",
"14 c #f8f85e",
"24 c #f8f852",
"34 c #f8f952",
"44 c #f8f93e",
"54 c #f9f920",
"64 c #f9f92b",
"74 c #f9f96a",
"84 c #fafab3",
"94 c #fafae8",
":4 c #fafafa",
";4 c #fbfcfb",
"A4 c #fcfcfb",
"B4 c #fdfdfe",
"C4 c #f3f3f3",
"D4 c #f4f4f3",
"E4 c #f3f47d",
"F4 c #f4f4db",
"G4 c #f5f5f4",
"H4 c #f6f5f6",
"I4 c #f5f6f6",
"J4 c #f6f6f6",
"K4 c #f7f7df",
"L4 c #f7f6ab",
"M4 c #f8f76e",
"N4 c #f7f745",
"O4 c #f7f831",
"P4 c #f8f827",
"Q4 c #f8f923",
"R4 c #f9f821",
"S4 c #f9f917",
"T4 c #f9f00a",
"U4 c #f9f218",
"V4 c #f9fa5e",
"W4 c #fafaa7",
"X4 c #fbfae5",
"Y4 c #fbfafa",
"Z4 c #fbfbfc",
"a4 c #fdfefe",
"b4 c #f4f44a",
"c4 c #f4f5a8",
"d4 c #f5f5ee",
"e4 c #f6f5f5",
"f4 c #f6f6f3",
"g4 c #f6f6cc",
"h4 c #f6f791",
"i4 c #f7f657",
"j4 c #f7f731",
"k4 c #f7f819",
"l4 c #f8f70e",
"m4 c #f8f80a",
"n4 c #f8f809",
"o4 c #f8f90a",
"p4 c #f9f90b",
"q4 c #f9ef0a",
"r4 c #fabc06",
"s4 c #fad20b",
"t4 c #fbfb3f",
"u4 c #fafa7f",
"v4 c #fbfbc5",
"w4 c #fbfbfb",
"x4 c #fcfbfb",
"y4 c #fcfbfc",
"z4 c #fbfcfc",
"05 c #fdfcfc",
"15 c #fdfcfd",
"25 c #fefefe",
"35 c #fefefd",
"45 c #fefec8",
"55 c #f4f410",
"65 c #f4f53f",
"75 c #f5f597",
"85 c #f5f5e2",
"95 c #f5f5f3",
":5 c #f5f5e7",
";5 c #f6f6a3",
"A5 c #f6f753",
"B5 c #f6f71d",
"C5 c #f7f708",
"D5 c #f7f808",
"E5 c #f8f907",
"F5 c #f8f808",
"G5 c #f8f908",
"H5 c #f9d607",
"I5 c #facc04",
"J5 c #fbfa15",
"K5 c #fafb41",
"L5 c #fbfb76",
"M5 c #fbfbc6",
"N5 c #fcfcfd",
"O5 c #fefdfd",
"P5 c #fdfefd",
"Q5 c #fdfef2",
"R5 c #fefeaf",
"S5 c #feff55",
"T5 c #bdc6d1",
"U5 c #f4f505",
"V5 c #f5f527",
"W5 c #f5f562",
"X5 c #f5f689",
"Y5 c #f6f680",
"Z5 c #f7f641",
"a5 c #f7f705",
"b5 c #f7f707",
"c5 c #f8f707",
"d5 c #f8ed07",
"e5 c #f8e608",
"f5 c #f8df08",
"g5 c #f8e607",
"h5 c #f9f708",
"i5 c #f9ec07",
"j5 c #fac707",
"k5 c #faac06",
"l5 c #fadd06",
"m5 c #fbfb10",
"n5 c #fbfb2f",
"o5 c #fbfb66",
"p5 c #fbfcbd",
"q5 c #fcfcf7",
"r5 c #fcfcfc",
"s5 c #fcfdfd",
"t5 c #fdfdfc",
"u5 c #fefebe",
"v5 c #fefe7f",
"w5 c #fefe3d",
"x5 c #fefe0f",
"y5 c #f4d908",
"z5 c #f5f506",
"06 c #f6f606",
"16 c #f5f60d",
"26 c #f6f61e",
"36 c #f6f730",
"46 c #f6f71a",
"56 c #f7f706",
"66 c #f8f709",
"76 c #f7e608",
"86 c #f8c307",
"96 c #f8ac06",
":6 c #f8a506",
";6 c #f9a606",
"A6 c #f9c107",
"B6 c #f9e407",
"C6 c #fade07",
"D6 c #fac907",
"E6 c #fac006",
"F6 c #faec07",
"G6 c #fbfb15",
"H6 c #fcfb27",
"I6 c #fbfc4b",
"J6 c #fcfc90",
"K6 c #fcfcda",
"L6 c #fdfdf7",
"M6 c #fdfdfd",
"N6 c #fdfdf0",
"O6 c #fdfe9a",
"P6 c #fefd40",
"Q6 c #fefe1f",
"R6 c #feff0e",
"S6 c #fee607",
"T6 c #f4f4f4",
"U6 c #f4f5f4",
"V6 c #f56d06",
"W6 c #f5a507",
"X6 c #f6da09",
"Y6 c #f5ee08",
"Z6 c #f6f60a",
"a6 c #f6f70f",
"b6 c #f6f70e",
"c6 c #f7f709",
"d6 c #f8db08",
"e6 c #f89606",
"f6 c #f87106",
"g6 c #f86606",
"h6 c #f85f06",
"i6 c #f96e06",
"j6 c #f99806",
"k6 c #f9c007",
"l6 c #f9ca06",
"m6 c #facf07",
"n6 c #fad307",
"o6 c #faf608",
"p6 c #fbfb09",
"q6 c #fbfc11",
"r6 c #fcfb0d",
"s6 c #fcfc15",
"t6 c #fcfc27",
"u6 c #fdfc59",
"v6 c #fdfca2",
"w6 c #fefdd3",
"x6 c #fdfed4",
"y6 c #fdfd95",
"z6 c #fdfe2a",
"07 c #fef908",
"17 c #fed108",
"27 c #fea909",
"37 c #fe6608",
"47 c #f52206",
"57 c #f63106",
"67 c #f65907",
"77 c #f67b08",
"87 c #f6a408",
"97 c #f7bf08",
":7 c #f7e00a",
";7 c #f7dd0b",
"A7 c #f79408",
"B7 c #f85806",
"C7 c #f84506",
"D7 c #f93606",
"E7 c #f92806",
"F7 c #f94106",
"G7 c #fa7506",
"H7 c #faa806",
"I7 c #fac306",
"J7 c #fad806",
"K7 c #faed06",
"L7 c #fafb07",
"M7 c #fcfc0e",
"N7 c #fcfc0b",
"O7 c #fcfc0c",
"P7 c #fcfd0b",
"Q7 c #fdfd07",
"R7 c #fcfd12",
"S7 c #fdfd49",
"T7 c #fdfd7f",
"U7 c #fdfd78",
"V7 c #fdfd39",
"W7 c #fee207",
"X7 c #fe7c07",
"Y7 c #fe3a07",
"Z7 c #ff1f08",
"a7 c #fe0807",
"b7 c #0a0a0a",
"c7 c #0e0e0e",
"d7 c #121212",
"e7 c #f50206",
"f7 c #f50506",
"g7 c #f51106",
"h7 c #f72106",
"i7 c #f74506",
"j7 c #f75d07",
"k7 c #f7840a",
"l7 c #f78b08",
"m7 c #f86607",
"n7 c #f93f06",
"o7 c #f93407",
"p7 c #f81b06",
"q7 c #f91306",
"r7 c #f93506",
"s7 c #f96f06",
"t7 c #f9ab06",
"u7 c #fac906",
"v7 c #fae806",
"w7 c #fbfa06",
"x7 c #fcfb07",
"y7 c #fcfc0a",
"z7 c #fcfb09",
"08 c #fcfd09",
"18 c #fcfc08",
"28 c #fcfd07",
"38 c #fdfd05",
"48 c #fdfe23",
"58 c #fdfd50",
"68 c #fdfe42",
"78 c #fdf914",
"88 c #fe6d05",
"98 c #fe0907",
":8 c #ff0107",
";8 c #262626",
"A8 c #282828",
"B8 c #282727",
"C8 c #f50006",
"D8 c #f60506",
"E8 c #f60b06",
"F8 c #f60e06",
"G8 c #f62407",
"H8 c #f73406",
"I8 c #f75508",
"J8 c #f87409",
"K8 c #f85908",
"L8 c #f84306",
"M8 c #f93006",
"N8 c #f91b05",
"O8 c #fa2705",
"P8 c #fa5206",
"Q8 c #fa8f06",
"R8 c #fad107",
"S8 c #faec06",
"T8 c #fbf907",
"U8 c #fbfb07",
"V8 c #fbfb08",
"W8 c #fbfc08",
"X8 c #fcfc09",
"Y8 c #fdfc08",
"Z8 c #fcfd08",
"a8 c #fefd1e",
"b8 c #fefd47",
"c8 c #fefe31",
"d8 c #fed009",
"e8 c #fe2106",
"f8 c #ff0005",
"g8 c #ff0205",
"h8 c #292929",
"i8 c #f61206",
"j8 c #f61c06",
"k8 c #f72206",
"l8 c #f71906",
"m8 c #f72006",
"n8 c #f74307",
"o8 c #f85b07",
"p8 c #f86909",
"q8 c #f85c08",
"r8 c #f95407",
"s8 c #f94006",
"t8 c #f95c06",
"u8 c #fa9206",
"v8 c #fad306",
"w8 c #fbf906",
"x8 c #fafb05",
"y8 c #fbfb05",
"z8 c #fbfc04",
"09 c #fcfc04",
"19 c #fcfc05",
"29 c #fdfd06",
"39 c #fdfc05",
"49 c #fdfd04",
"59 c #fdfd08",
"69 c #fdfd25",
"79 c #fefe39",
"89 c #fefe20",
"99 c #fea908",
":9 c #ff0806",
";9 c #ff0006",
"A9 c #ff0607",
"B9 c #fb1808",
"C9 c #f5f5f6",
"D9 c #f5f5f5",
"E9 c #2c2c2c",
"F9 c #f63f06",
"G9 c #f64006",
"H9 c #f63b06",
"I9 c #f73006",
"J9 c #f73e06",
"K9 c #f85807",
"L9 c #f97d07",
"M9 c #f97a07",
"N9 c #f87307",
"O9 c #f96c06",
"P9 c #f97e06",
"Q9 c #f9aa06",
"R9 c #fae206",
"S9 c #fafb06",
"T9 c #fbfb0a",
"U9 c #fbfb0c",
"V9 c #fcfb1c",
"W9 c #fcfb23",
"X9 c #fcfc26",
"Y9 c #fcfd1c",
"Z9 c #fdfd1b",
"a9 c #fdfc2b",
"b9 c #fdfd2a",
"c9 c #fdfd1c",
"d9 c #fdfd13",
"e9 c #fefe18",
"f9 c #fef00e",
"g9 c #fe8809",
"h9 c #fe0e06",
"i9 c #fe0006",
"j9 c #fd0807",
"k9 c #df0505",
"l9 c #940504",
"m9 c #000000",
"n9 c #272728",
"o9 c #2a2a2a",
"p9 c #f73407",
"q9 c #f73706",
"r9 c #f73507",
"s9 c #f72e06",
"t9 c #f73607",
"u9 c #f84907",
"v9 c #f85e07",
"w9 c #f96308",
"x9 c #f86807",
"y9 c #f97207",
"z9 c #fa9a08",
"0: c #faaf08",
"1: c #fadd08",
"2: c #fbfa07",
"3: c #fbfa0b",
"4: c #fbfb22",
"5: c #fcfb31",
"6: c #fcfb33",
"7: c #fbfc4d",
"8: c #fcfc5a",
"9: c #fcfd5d",
":: c #fdfc4e",
";: c #fcfc46",
"A: c #fdfd4a",
"B: c #fdfd3c",
"C: c #fdfd27",
"D: c #fefe15",
"E: c #fdeb0d",
"F: c #feae0a",
"G: c #fe6f0a",
"H: c #fe3f09",
"I: c #fb1b07",
"J: c #e40706",
"K: c #b90103",
"L: c #770002",
"M: c #290100",
"N: c #605f5f",
"O: c #a53d36",
"P: c #a63e36",
"Q: c #a73c35",
"R: c #a63c35",
"S: c #a64036",
"T: c #a84636",
"U: c #a74735",
"V: c #a84935",
"W: c #a74c35",
"X: c #a85235",
"Y: c #a85c35",
"Z: c #a86635",
"a: c #a87436",
"b: c #a98d37",
"c: c #a99038",
"d: c #a9903c",
"e: c #a9903e",
"f: c #a9913f",
"g: c #a99041",
"h: c #a99044",
"i: c #a98e44",
"j: c #a98f43",
"k: c #a98e41",
"l: c #a9883d",
"m: c #a97d39",
"n: c #a87237",
"o: c #a86a37",
"p: c #a75937",
"q: c #a54235",
"r: c #a23c35",
"s: c #a53b36",
"t: c #a04335",
"u: c #8b3635",
"v: c #663333",
"w: c #403333",
"x: c #343333",
"y: c #687991",
"z: c #d3d9e0",
"0; c #797c7f",
"1; c #818488",
"2; c #808387",
"                                                                                                ",
"                                                                                                ",
"                                                                                                ",
"                                                                                                ",
"                                                                                                ",
"2;1;1;1;1;1;1;1;1;1;1;1;1;1;1;1;1;1;1;1;1;1;1;1;1;1;1;1;1;1;1;1;1;1;1;1;1;1;1;1;1;1;1;0;        ",
"1;z:z:z:z:z:z:z:z:z:z:z:z:z:z:z:z:z:z:z:z:z:z:z:z:z:z:z:z:z:z:z:y:y:z:z:y:y:z:z:y:y:z:1;        ",
"1;z:z:z:z:z:z:z:z:z:z:z:z:z:z:z:z:z:z:z:z:z:z:z:z:z:z:z:z:z:z:z:z:z:z:z:z:z:z:z:z:z:z:1;        ",
"1;z:x:w:v:u:t:s:r:q:p:o:n:m:l:k:j:i:h:g:f:e:d:c:b:a:Z:Y:X:W:V:U:T:S:R:Q:P:O:N:N:N:N:z:1;        ",
"1;z:M:L:K:J:I:H:G:F:E:D:C:B:A:;:::9:8:7:6:5:4:3:2:1:0:z9y9x9w9v9u9t9s9r9q9p9o9o9n9m9z:1;        ",
"1;z:l9k9j9i9h9g9f9D:e9d9c9b9a9Z9Y9X9W9V9U9T92:S9R9Q9P9O9N9M9L9N9K9J9I9H9G9F9E9D9C9m9z:1;        ",
"1;z:B9A9;9i9:99989796959493929291909z8y8y8x8w8v8u8t8s8s8r8q8p8o8n8m8l8k8j8i8h8D9D9m9z:1;        ",
"1;z:g8f8i9i9e8d8c8b8a82959Z859Y8X8W8V8U8T8S8R8Q8P8O8N8M8L8K8J8I8H8G8F8E8D8C8B8A8;8m9z:1;        ",
"1;z:i9;9:898887868584838281808z7y7U9x7w7v7u7t7s7r7q7p7o7n7m7l7k7j7i7h7g7f7e7d7c7b7m9z:1;        ",
"1;z:a7Z7Y7X7W7V7U7T7S7R7Q7P7O7N7M7T9L7K7J7I7H7G7F7E7D7C7B7A7;7:7978777675747m9m9m9m9z:1;        ",
"1;z:37271707z6y6x6w6v6u6t6s6r6M7q6p6o6n6m6l6k6j6i6h6g6f6e6d6c6b6a6Z6Y6X6W6V6m9U6T6m9z:1;        ",
"1;z:S6R6Q6P6O6N6M6M6L6K6J6I6H6G6p6V8F6E6D6C6B6A6;6:696867666564636261606z5y5m9T6T6m9z:1;        ",
"1;z:x5w5v5u5L6M6M6t5s5r5q5p5o5n5m5S9l5k5j5i5h5g5f5e5d5c5b5a5b6Z5Y5X5W5V5z5U5m9m9m9m9z:1;        ",
"1;T5S5R5Q5P5O5M6M6t5N5r5r5r5M5L5K5J5I5;6H5h5G5F5E5D5D5C5c6B5A5;5:59585756555m9m9m9m9T51;        ",
"1;T5453525O5M615N505r5z4y4x4w4v4u4t4s4r4q4p4o4n4m4l4k4j4i4h4g4f4e4D9D9d4c4b4m9m9m9m9T51;        ",
"1;T5a4a4O5M6s5s5N5r5r5r5Z4w4Y4X4W4V4U4T4S4R4Q4P4O4N4M4L4K4J4I4H4H4D9G4U6F4E4m9D4C4m9T51;        ",
"1;T525B4M6M6t5s505r5A4;4w4w4:494847464544434241404z3y3x3w3J4J4D9D9G4v3T6u3t3m9C4s3m9T51;        ",
"1;T5O5P5M615s5s5r5r5z4w4r3q3p3o3n3m3l3k3j3i3h3g3f3e3d3w3J4e4C9D9U6D9U6D4c3b3m9m9m9m9T51;        ",
"1;T5O5M6t5s51505z4z4x4w4w4:4:4a3Z3Y3X3W3V3U3T3S3d3d3w3R3J4I4D9D9Q3T6T6P3O3N3m9m9m9m9T51;        ",
"1;T5M6M6150515r5Z4w4w4Y4p3q3:4M3L3L3K3J3I3H3G3H3F3F3x3J4E3C9D9D9G4T6D3D3C3B3m9m9m9m9T51;        ",
"1;T5A3s5t5r5r5x4y4Z4r3Y4;3:4:4M3L3:3:393J3H3d3d3d3J4J4e4H4D983U6T6T673D46353m9C443m9T51;        ",
"1;T533N5r5r5z4z4w4q3p3p3:42313:4L303I3I3H3z2d3y2w3J4H4E3E3Q3D9T6T6T6x2C4w2v2m9u2u2m9T51;        ",
"1;T5t2s2r5r5Z4w4w4;3;3:4:4:4r2L3L3:3I3q2q2d3y2R3J4H4p2H4G4Q383T6D47373C4o2n2m9m9m9m9T51;        ",
"1;T5m2l2k2A4A4Z4w4j2:4:4:4r2L3L3:3i2I3h2d3d3w3w3I4E3H4D9D983T6T673D3C4g2f2e2m9m9m9m9T51;        ",
"1;T5d2c2b2a2w4w4r3;3:4a3M3L3Z2Z293I3z2G3d3y2x3J4J4H4D9D9v3T6T673D4Y2X2W2V2U2m9m9m9m9T51;        ",
"1;T5T2S2R2Q2P2O2N2:413L3L3Z2:3I3I3H3G3d3w3J4w3J4E3D9D9U6v3T6D3x2C463M2L2K2J2m9u2I2m9T51;        ",
"1;T5H2G2F2E2D2C2B2A2;2:2Z3i2I3I3I3G392827262524232221202z1u3y1x1w1v1u1t1s1r1m9q1q1m9T51;        ",
"1;T5p1o1n1m1l1k1j1i1h1g1f1e1d1c1b1a1Z1Y1X1W1V1U1T1S1R1Q1P1O1N1M1L1K1J1I1H1G1m9m9m9m9T51;        ",
"1;T5F1E1D1C1B1A1;1:191817161514131211101z0y0x0w0v0u0t0s0r0q0p0o0n0m0l0k0j0i0m9m9m9m9T51;        ",
"1;T5h0g0f0e0d0c0b0a0Z0Y0X0W0V0U0T0S0R0Q0P0O0O0N0M0L0K0J0I0H0G0F0E0D0C0B0A0;0m9m9m9m9T51;        ",
"1;T5m9m9m9m9m9m9m9m9m9m9m9m9m9m9m9m9m9m9m9m9m9m9m9m9m9m9m9m9m9m9m9m9m9m9m9m9m9m9m9m9T51;        ",
"1;T5m9j2:4m913L3m9I3:3I3I3d3m9:0:0w3J4p2D9D9D9D9T6T6T6m9C443m943u290I2m9q1q1m98070m9T51;        ",
"1;T5m9q3:4m923L3m9i2I3I3h2d3m9:0J4J4J4D9D9D960v3T6D4D4m9C450m940u230I2m9q120m98010m9T51;        ",
"1;T5m9m9m9m9m9m9m9m9m9m9m9m9m9m9m9m9m9m9m9m9m9m9m9m9m9m9m9m9m9m9m9m9m9m9m9m9m9m9m9m9T51;        ",
"1;T5T5T5T5T5T5T5T5T5T5T5T5T5T5T5T5T5T5T5T5T5T5T5T5T5T5T5T5T5T5T5T5T5T5T5T5T5T5T5T5T5T51;        ",
"001;1;1;1;1;1;1;1;1;1;1;1;1;1;2;2;2;2;2;2;2;2;2;2;2;2;2;2;2;2;2;2;2;2;1;1;1;1;1;1;1;1;          ",
"                                                                                                ",
"                                                                                                ",
"                                                                                                ",
"                                                                                                ",
"                                                                                                ",
"                                                                                                ",
"                                                                                                "};
