/* XPM */
static char *image[] = {
"48 48 524 2",
"   c None",
"00 c #0d0d0d",
"10 c #7f7f7f",
"20 c #ababab",
"30 c #999999",
"40 c #a7a7a7",
"50 c #b5b5b5",
"60 c #bcbcbc",
"70 c #0e0e0e",
"80 c #909090",
"90 c #f7f7f7",
":0 c #f1f1f1",
";0 c #ededed",
"A0 c #eaeaea",
"B0 c #e8e8e8",
"C0 c #e3e3e3",
"D0 c #d9d9d9",
"E0 c #e2e2e2",
"F0 c #f2f2f2",
"G0 c #dedede",
"H0 c #f4f4f4",
"I0 c #fdfdfd",
"J0 c #000000",
"K0 c #1e1e1e",
"L0 c #c3c3c3",
"M0 c #292929",
"N0 c #353535",
"O0 c #323232",
"P0 c #3f3f3f",
"Q0 c #4b4b4b",
"R0 c #474747",
"S0 c #363636",
"T0 c #393939",
"U0 c #3d3d3d",
"V0 c #424242",
"W0 c #525252",
"X0 c #d8d8d8",
"Y0 c #4d4d4d",
"Z0 c #515151",
"a0 c #3a3a3a",
"b0 c #3e3e3e",
"c0 c #434343",
"d0 c #484848",
"e0 c #cfcfcf",
"f0 c #404040",
"g0 c #444444",
"h0 c #494949",
"i0 c #6b6b6b",
"j0 c #949494",
"k0 c #8e8e8e",
"l0 c #cdcdcd",
"m0 c #c5c4c4",
"n0 c #545454",
"o0 c #7c7c7c",
"p0 c #c0c0c0",
"q0 c #5a544c",
"r0 c #4e4e4e",
"s0 c #adadad",
"t0 c #535353",
"u0 c #a4a4a4",
"v0 c #f8f8f8",
"w0 c #6d5f4c",
"x0 c #79664c",
"y0 c #a5a5a5",
"z0 c #939393",
"01 c #56524c",
"11 c #645a4c",
"21 c #6c5f4c",
"31 c #75644c",
"41 c #7e6a4f",
"51 c #988366",
"61 c #b1987a",
"71 c #c2a788",
"81 c #c6aa8a",
"91 c #bfa485",
":1 c #b1997a",
";1 c #a08a6d",
"A1 c #8c775b",
"B1 c #71614c",
"C1 c #685c4c",
"D1 c #53504c",
"E1 c #666666",
"F1 c #5b554c",
"G1 c #7b684d",
"H1 c #b0987b",
"I1 c #ebcaa8",
"J1 c #ffc794",
"K1 c #ffa95b",
"L1 c #ffa858",
"M1 c #ffad61",
"N1 c #ffb572",
"O1 c #ffc189",
"P1 c #facda2",
"Q1 c #e5c5a6",
"R1 c #b09a7f",
"S1 c #756652",
"T1 c #655b4c",
"U1 c #727272",
"V1 c #59534c",
"W1 c #806c51",
"X1 c #d6b999",
"Y1 c #ffb671",
"Z1 c #ff8d21",
"a1 c #ff7c00",
"b1 c #ff8008",
"c1 c #ff9128",
"d1 c #ffb26a",
"e1 c #debe9d",
"f1 c #818181",
"g1 c #7a694f",
"h1 c #c5ab8c",
"i1 c #ff9d3d",
"j1 c #f97b00",
"k1 c #a95702",
"l1 c #8a4903",
"m1 c #995002",
"n1 c #cc6701",
"o1 c #ff7e00",
"p1 c #ff942b",
"q1 c #6b5e4c",
"r1 c #60584c",
"s1 c #959595",
"t1 c #e4e3e3",
"u1 c #b1b1b1",
"v1 c #6e604c",
"w1 c #99876e",
"x1 c #fda54d",
"y1 c #ff8000",
"z1 c #e17201",
"02 c #613f12",
"12 c #76582e",
"22 c #7f6137",
"32 c #7b5c32",
"42 c #6d4e24",
"52 c #5e3d11",
"62 c #713e04",
"72 c #aa5902",
"82 c #b15c02",
"92 c #603b0c",
":2 c #5f574c",
";2 c #71624c",
"A2 c #a0896b",
"B2 c #ff8404",
"C2 c #ff8200",
"D2 c #834e11",
"E2 c #92744a",
"F2 c #8f744c",
"G2 c #89704b",
"H2 c #7b613e",
"I2 c #6b512e",
"J2 c #654d2c",
"K2 c #6d5d45",
"L2 c #655a4c",
"M2 c #5c554c",
"N2 c #c5c5c5",
"O2 c #d4d4d4",
"P2 c #dadada",
"Q2 c #4d4d4c",
"R2 c #514f4c",
"S2 c #58534c",
"T2 c #62594c",
"U2 c #72624c",
"V2 c #8f7655",
"W2 c #ff8400",
"X2 c #ae7533",
"Y2 c #866e4c",
"Z2 c #73634c",
"a2 c #695d4c",
"b2 c #59544c",
"c2 c #54514c",
"d2 c #e0e0e0",
"e2 c #dfdfdf",
"f2 c #61584c",
"g2 c #846e51",
"h2 c #d27001",
"i2 c #ff8600",
"j2 c #faa443",
"k2 c #c1a683",
"l2 c #9c8059",
"m2 c #94764c",
"n2 c #91744c",
"o2 c #8b714c",
"p2 c #846d4c",
"q2 c #7f6a4c",
"r2 c #78664c",
"s2 c #6f614c",
"t2 c #57534c",
"u2 c #52504c",
"v2 c #4f4e4c",
"w2 c #ececec",
"x2 c #dddddd",
"y2 c #504e4c",
"z2 c #55514c",
"03 c #5e574c",
"13 c #6a5e4c",
"23 c #7c694f",
"33 c #644318",
"43 c #f38200",
"53 c #ff8800",
"63 c #ff8c08",
"73 c #ffb764",
"83 c #f7d0a3",
"93 c #ddc09c",
":3 c #bea37f",
";3 c #a08864",
"A3 c #8b734f",
"B3 c #816b4c",
"C3 c #7a674c",
"D3 c #70614c",
"E3 c #675c4c",
"F3 c #5e564c",
"G3 c #57524c",
"H3 c #524f4c",
"I3 c #4e4d4c",
"J3 c #4d4c4c",
"K3 c #f5f5f5",
"L3 c #d3d2d2",
"M3 c #cacaca",
"N3 c #595858",
"O3 c #5b5a58",
"P3 c #5f5c58",
"Q3 c #656058",
"R3 c #6e6558",
"S3 c #7a6c58",
"T3 c #857154",
"U3 c #694a21",
"V3 c #bd7b2c",
"W3 c #ffa337",
"X3 c #ffa842",
"Y3 c #ffb864",
"Z3 c #ffc98a",
"a3 c #ffd9ad",
"b3 c #edd4b6",
"c3 c #c5af93",
"d3 c #927f63",
"e3 c #7f6f58",
"f3 c #746858",
"g3 c #6a6358",
"h3 c #625e58",
"i3 c #5d5b58",
"j3 c #5a5958",
"k3 c #585858",
"l3 c #fefefe",
"m3 c #cccbcb",
"n3 c #cccccc",
"o3 c #fbfbfb",
"p3 c #505050",
"q3 c #5d5d5c",
"r3 c #605f5c",
"s3 c #65615c",
"t3 c #6d665c",
"u3 c #766b5c",
"v3 c #81725c",
"w3 c #755a34",
"x3 c #694920",
"y3 c #906126",
"z3 c #d28b34",
"04 c #fba53d",
"14 c #ffa83e",
"24 c #ffa83f",
"34 c #ffb357",
"44 c #ffc886",
"54 c #f3d8b5",
"64 c #a29079",
"74 c #7d6f5c",
"84 c #72695c",
"94 c #69645c",
":4 c #62605c",
";4 c #5e5d5c",
"A4 c #5c5c5c",
"B4 c #5a5a5a",
"C4 c #f6f6f6",
"D4 c #595959",
"E4 c #636262",
"F4 c #686662",
"G4 c #6e6962",
"H4 c #756d62",
"I4 c #7e7362",
"J4 c #887862",
"K4 c #937f62",
"L4 c #998260",
"M4 c #8b7049",
"N4 c #755831",
"O4 c #6a4c23",
"P4 c #785424",
"Q4 c #ba8036",
"R4 c #feac46",
"S4 c #ffad46",
"T4 c #ffb455",
"U4 c #f5d2a6",
"V4 c #8f806b",
"W4 c #7b7062",
"X4 c #716b62",
"Y4 c #696662",
"Z4 c #646362",
"a4 c #5d5d5d",
"b4 c #575757",
"c4 c #ffffff",
"d4 c #bebebe",
"e4 c #b9b9b9",
"f4 c #656565",
"g4 c #696968",
"h4 c #6c6a68",
"i4 c #7f7568",
"j4 c #887b68",
"k4 c #918068",
"l4 c #9a8568",
"m4 c #a28a68",
"n4 c #a48c68",
"o4 c #9a815c",
"p4 c #7f633d",
"q4 c #966d37",
"r4 c #ffb24e",
"s4 c #ffb75a",
"t4 c #a29480",
"u4 c #827768",
"v4 c #777168",
"w4 c #706d68",
"x4 c #6a6968",
"y4 c #696868",
"z4 c #686868",
"05 c #606060",
"15 c #fcfcfc",
"25 c #bababa",
"35 c #aeaeae",
"45 c #747474",
"55 c #70706f",
"65 c #72716f",
"75 c #7b766f",
"85 c #827a6f",
"95 c #8b7f6f",
":5 c #968772",
";5 c #a08e75",
"A5 c #a48e6f",
"B5 c #a9916f",
"C5 c #ad8c5f",
"D5 c #ffb655",
"E5 c #f8b253",
"F5 c #9c8d77",
"G5 c #887e6f",
"H5 c #7e786f",
"I5 c #76736f",
"J5 c #71706f",
"K5 c #706f6f",
"L5 c #6f6f6f",
"M5 c #6d6d6d",
"N5 c #f3f3f3",
"O5 c #afafaf",
"P5 c #a1a1a1",
"Q5 c #ebebeb",
"R5 c #868686",
"S5 c #777676",
"T5 c #7c7976",
"U5 c #817c76",
"V5 c #878076",
"W5 c #a59a8c",
"X5 c #ecdbc2",
"Y5 c #f6e2c5",
"Z5 c #e6d4bb",
"a5 c #cebba1",
"b5 c #beaa8e",
"c5 c #bba78b",
"d5 c #cdba9f",
"e5 c #f7cc91",
"f5 c #ffbb5c",
"g5 c #98723e",
"h5 c #9a8c78",
"i5 c #8c8376",
"j5 c #837e76",
"k5 c #7c7a76",
"l5 c #787776",
"m5 c #767676",
"n5 c #7b7b7b",
"o5 c #efefef",
"p5 c #e1e1e1",
"q5 c #9f9f9f",
"r5 c #636363",
"s5 c #7e7d7d",
"t5 c #83807d",
"u5 c #8d877d",
"v5 c #b5a997",
"w5 c #ffc677",
"x5 c #ffc26e",
"y5 c #ffcb83",
"z5 c #ffd8a3",
"06 c #ffe2b9",
"16 c #ffe3bd",
"26 c #ffd9a4",
"36 c #ffc26d",
"46 c #ffbd62",
"56 c #a57a3f",
"66 c #8a7559",
"76 c #998d7d",
"86 c #8f877d",
"96 c #87837d",
":6 c #82807d",
";6 c #7f7e7d",
"A6 c #7d7d7d",
"B6 c #626262",
"C6 c #8f8f8f",
"D6 c #eeeded",
"E6 c #f0f0f0",
"F6 c #b3b3b3",
"G6 c #868584",
"H6 c #898784",
"I6 c #8d8984",
"J6 c #928c84",
"K6 c #918574",
"L6 c #715530",
"M6 c #aa7f44",
"N6 c #dfa757",
"O6 c #f6ba62",
"P6 c #ffc066",
"Q6 c #fdbe65",
"R6 c #e8ae5c",
"S6 c #b48647",
"T6 c #74572f",
"U6 c #897458",
"V6 c #a09584",
"W6 c #989084",
"X6 c #918b84",
"Y6 c #8b8884",
"Z6 c #878684",
"a6 c #858584",
"b6 c #848484",
"c6 c #616161",
"d6 c #e6e6e6",
"e6 c #828282",
"f6 c #e9e9e9",
"g6 c #c9c9c9",
"h6 c #5f5f5f",
"i6 c #8f8d8b",
"j6 c #928f8b",
"k6 c #96918b",
"l6 c #9b948b",
"m6 c #9e9486",
"n6 c #8a7860",
"o6 c #765f3f",
"p6 c #6a4f2b",
"q6 c #644722",
"r6 c #634620",
"s6 c #664a25",
"t6 c #735937",
"u6 c #8b765a",
"v6 c #a49784",
"w6 c #a49a8b",
"x6 c #9e968b",
"y6 c #98938b",
"z6 c #93908b",
"07 c #908e8b",
"17 c #8d8c8b",
"27 c #8c8c8b",
"37 c #8b8b8b",
"47 c #5e5e5e",
"57 c #c6c6c6",
"67 c #e5e5e5",
"77 c #d5d5d5",
"87 c #a19b92",
"97 c #a59d92",
":7 c #ada292",
";7 c #aba192",
"A7 c #a99f92",
"B7 c #a69e92",
"C7 c #a29b92",
"D7 c #9e9992",
"E7 c #9a9792",
"F7 c #979592",
"G7 c #959492",
"H7 c #939392",
"I7 c #929292",
"J7 c #5b5b5b",
"K7 c #dbdbdb",
"L7 c #e4e4e4",
"M7 c #e7e7e7",
"N7 c #d2d2d2",
"O7 c #999898",
"P7 c #9b9a98",
"Q7 c #9d9b98",
"R7 c #a09d98",
"S7 c #a39e98",
"T7 c #a5a098",
"U7 c #a7a198",
"V7 c #aaa398",
"W7 c #a9a298",
"X7 c #a8a298",
"Y7 c #a6a098",
"Z7 c #a49f98",
"a7 c #a19d98",
"b7 c #9e9c98",
"c7 c #9c9a98",
"d7 c #9a9998",
"e7 c #999998",
"f7 c #565656",
"g7 c #d0d0d0",
"h7 c #e2e1e1",
"i7 c #c4c4c4",
"j7 c #a2a09e",
"k7 c #a5a29e",
"l7 c #a6a39e",
"m7 c #a8a49e",
"n7 c #a7a39e",
"o7 c #a6a29e",
"p7 c #a4a29e",
"q7 c #a3a19e",
"r7 c #a1a09e",
"s7 c #a09f9e",
"t7 c #9f9e9e",
"u7 c #9e9e9e",
"v7 c #4f4f4f",
"w7 c #cecece",
"x7 c #a6a5a2",
"y7 c #a6a4a2",
"z7 c #a5a4a2",
"08 c #a4a3a2",
"18 c #a3a3a2",
"28 c #a3a2a2",
"38 c #a2a2a2",
"48 c #989898",
"58 c #a7a7a6",
"68 c #a7a6a6",
"78 c #a6a6a6",
"88 c #9c9c9c",
"98 c #676767",
":8 c #4c4c4c",
"                                                                                                ",
"                                                                                                ",
"                                                                                                ",
"              :8:8:8:8:8:8:8:8:8:8:8:8:8:8:8:8:8:8:8:8:8:8:8:8:8:8:8:8:8:8:8:8:8:8              ",
"            :898887878787878787878787868685858585858686878787878787878787878788898:8            ",
"            :848383838383838383828181808z7y7x7x7x7y7y7z708182828383838383838383848:8            ",
"          w7v7u7u7u7u7u7u7u7u7t7s7r7q7p7o7n7m7m7m7m7l7k7q7j7r7s7t7u7u7u7u7u7u7u7u7v7i7          ",
"        h7g7f748484848484848e7d7c7b7a7Z7Y7X7W7V7V7W7U7T7S7R7Q7P7d7O748484848484848f7N7M7        ",
"        L7K7J7I7I7I7I7I7I7H7G7F7E7D7C7B7A7;7:7:7:7;7A79787D7E7F7G7H7I7I7I7I7I7I7I7J77767        ",
"        L757473737373737271707z6y6x6w6v6u6t6s6r6q6p6o6n6m6l6k6j6i62737373737373737h6g6f6        ",
"      e6d678c6b6b6b6b6b6a6Z6Y6X6W6V6U6T6S6R6Q6P6P6O6N6M6L6K6J6I6H6G6b6b6b6b6b6b6b6c6F6E6e6      ",
"      I7D6C6B6A6A6A6A6A6;6:69686766656464636261606z5y5x5w5v5u596t5;6s5A6A6A6A6A6A6r5q5p548      ",
"      38o5n5r5m5m5m5m5m5l5k5j5i5h5g5f5f5f5e5d5c5b5a5Z5Y5X5W5V5U5T5l5S5m5m5m5m5m5m5r5R5Q5P5      ",
"      O5N5M5B6L5L5L5L5K5J5I5H5G5F5E5D5D5D5C5B5B5B5B5A5;5:5958575I56555L5L5L5L5L5L5B645o535      ",
"      25150505z4z4z4z4y4x4w4v4u4t4s4r4r4r4q4p4o4n4n4m4l4k4j4i4v4w4h4g4z4z4z4z4z4z405f4E6e4      ",
"      d4c4b4a4B6B6B6B6B6Z4Y4X4W4V4U4T4S4S4R4Q4P4O4N4M4L4K4J4I4H4G4F4Z4E4B6B6B6B6B6a4D4C4d4      ",
"      57c4v7B4A4A4A4A4A4;4:49484746454443424141404z3y3x3w3u6v3u3t3s3r3q3A4A4A4A4A4B4p3o3n3      ",
"      m3l3:8b4k3k3k3k3k3j3i3h3g3f3e3d3c3b3a3Z3Y3X3W3W3W3V3U3T3S3R3Q3P3O3N3k3k3k3k3b4:8l3M3      ",
"      L3K3:8:8:8:8:8:8J3I3H3G3F3E3D3C3B3A3;3:39383736353534333231303z2y2J3:8:8:8:8:8:8K377      ",
"      x2w2:8:8:8:8:8:8J3v2u2t203E3s2r2q2p2o2n2m2l2k2j2i2i2i2h2g2s2f2t2y2J3:8:8:8:8:8:8w2e2      ",
"      d2K7:8:8:8:8:8:8J3y2c2b2f2a2Z2C3B3Y2o2n2m2m2m2X2W2W2W2W2V2U2T2S2R2Q2:8:8:8:8:8:8P2O2      ",
"      x2N2:8:8:8:8:8:8Q2y2z2M2L2K2J2I2H2G2F2m2m2m2E2D2C2C2C2B2A2;2T2S2R2Q2:8:8:8:8:8:8N2L7      ",
"      6735:8:8:8:8:8:8Q2R2t2:2a292827262524232221202z1y1y1y1x1w1v1f2G3y2J3:8:8:8:8:8:8u1t1      ",
"      E6s1:8:8:8:8:8:8Q2H3t2r1q1p1o1o1o1o1n1m1l1k1j1o1o1o1i1h1g1a2F3c2y2J3:8:8:8:8:8:888M7      ",
"      f6f1:8:8:8:8:8:8Q2R2t2:2a2e1d1c1b1a1a1a1a1a1a1a1Z1Y1X1W1v1T2V1u2v2J3:8:8:8:8:8:8R5w2      ",
"      Q5U1:8:8:8:8:8:8Q2y2z2M2T1S1R1Q1P1O1N1M1L1K1N1J1I1H1G1D3T1F1z2y2Q2:8:8:8:8:8:8:845E6      ",
"    C6C4E1:8:8:8:8:8:8J3v2D1S2:2C1B1r2A1;1:1918171615141312111M201H3v2J3:8:8:8:8:8:8:898E6z0    ",
"    y0o3A4:8:8:8:8:8:8J3I3y2c2V1:2T1q1B131r2x0x0r231U2w0E3f2F101H3v2Q2:8:8:8:8:8:8:8:8J7v0u0    ",
"    O5c4t0:8:8:8:8:8:8:8Q2v2y2D1t2F1:2T2T1C1a2a2C1E311r1F1t2c2R2v2Q2J3:8:8:8:8:8:8:8:8t015s0    ",
"    e4c4r0:8:8:8:8:8:8:8:8Q2I3y2R2D101S2b2F1M2M2F1q0V101c2H3y2I3J3:8:8:8:8:8:8:8:8:8:8r0c4u1    ",
"    p0c4D4:8:8:8:8:8:8:8:8:8J3J3Q2v2y2y2H3u2D1D1u2H3R2y2v2Q2Q2J3:8:8:8:8:8:8:8:8:8:8:8D4c4p0    ",
"    M3c4o0n0:8:8:8:8:8:8:8:8:8:8:8:8J3J3Q2Q2Q2Q2Q2Q2J3J3:8:8:8:8:8:8:8:8:8:8:8:8:8:8n0n5c4m0    ",
"    l0c4M5k0j0j0j0j0j0j0j0j0j0j0j0j0j0j0j0j0j0j0j0j0j0j0j0j0j0j0j0j0j0j0j0j0j0j0j0j0k0i0c4n3    ",
"    O2c4D4h647J7f7v7h0g0f0f0f0f0f0f0f0f0f0f0f0f0f0f0f0f0f0f0f0f0f0f0f0f0f0g0h0v7n0k3D4f7c4w7    ",
"    e0c4t0k3f7t0r0d0c0b0a0a0a0a0a0a0a0a0a0a0a0a0a0a0a0a0a0a0a0a0a0a0a0a0a0b0c0d0:8Z0n0Y0c4X0    ",
"    O2c4g0W0p3:8d0V0U0T0S0S0S0S0S0S0S0S0S0S0S0S0S0S0S0S0S0S0S0S0S0S0S0S0S0T0U0V0R0Q0r0P0c4K7    ",
"    g7c4S0O0d0d0c0b0T0N0O0O0O0O0O0O0O0O0O0O0O0O0O0O0O0O0O0O0O0O0O0O0O0O0O0N0T0b0V0b0M0N0c4K7    ",
"    d2v0L0K0J0J0J0J0J0J0J0J0J0J0J0J0J0J0J0J0J0J0J0J0J0J0J0J0J0J0J0J0J0J0J0J0J0J0J0J0K0L0K3x2    ",
"    M7n3I0c4c4c4c4c4c4c4c4c4c4c4c4c4c4c4c4c4c4c4c4c4c4c4c4c4c4c4c4c4c4c4c4c4c4c4c4c4c4l3x2H0    ",
"    G0f6F0L7G0f6M7E0E0M767D0d2x2Q5F0e2L7p5C0L7E0w2M7d2d2M7E0B0L7e2B0M7d2M767A0f6L7L7X0L7M7p5    ",
"    I7p5o5o5;0F0F0;0w2F0;0w2v0A0:0;0H0A0N5;0v0Q5:0o5N5o5;0F0E6:0F0;0E690F0f6E6f6Q5E6f6B0x280    ",
"    70e6u160503540P58830303030303030303030303030303030303030303030303030303088P5403550201000    ",
"        J0J0J0J0J0J0J0J0J0J0J0J0J0J0J0J0J0J0J0J0J0J0J0J0J0J0J0J0J0J0J0J0J0J0J0J0J0J0J0J0        ",
"                                                                                                ",
"                                                                                                ",
"                                                                                                ",
"                                                                                                ",
"                                                                                                "};
