/* XPM */
static char *image[] = {
"48 48 2 1",
"0 c #000000",
"1 c #87d7ff",
"111111111111111111111111111111111111111111111111",
"111111111111111111111111111111111111111111111111",
"110000000000000000000000000000000000000000000011",
"110000000000000000000000000000000000000000000011",
"110000000000000000000000000000000000000000000011",
"110000000000000000000000000000000000000000000011",
"110000000000000000000000000000000000000000000011",
"110000000000000000000000000000000000000000000011",
"110000000000000000000000000000000000000000000011",
"110000000000000000000000000000000000000000000011",
"110000000000000000000000000000000000000000000011",
"110000000000000000000000000000000000000000000011",
"110000000000000000000000000000000000000000000011",
"110000000000000000000000000000000000000000000011",
"110000000000000000000000000000000000000000000011",
"110000000000000000000000000000000000000000000011",
"110000000011111111111111111111111111111000000011",
"110000000011111111111111111111111111111000000011",
"110000000000000000000000000000000000000000000011",
"110000000000000000000000000000000000000000000011",
"110000000011111111011001111110001111110000000011",
"110000000011111111011011111111011111111000000011",
"110000000000011000011011011011011000011000000011",
"110000000000011000011011011011011111111000000011",
"110000000000011000011011011011011111111000000011",
"110000000000011000011011011011011000000000000011",
"110000000000011000011011011011011111111000000011",
"110000000000011000011011011011001111111000000011",
"110000000000000000000000000000000000000000000011",
"110000000000000000000000000000000000000000000011",
"110000000011111111111111111111111111111000000011",
"110000000011111111111111111111111111111000000011",
"110000000000000000000000000000000000000000000011",
"110000000000000000000000000000000000000000000011",
"110000000000000000000000000000000000000000000011",
"110000000000000000000000000000000000000000000011",
"110000000000000000000000000000000000000000000011",
"110000000000000000000000000000000000000000000011",
"110000000000000000000000000000000000000000000011",
"110000000000000000000000000000000000000000000011",
"110000000000000000000000000000000000000000000011",
"110000000000000000000000000000000000000000000011",
"110000000000000000000000000000000000000000000011",
"110000000000000000000000000000000000000000000011",
"110000000000000000000000000000000000000000000011",
"110000000000000000000000000000000000000000000011",
"111111111111111111111111111111111111111111111111",
"111111111111111111111111111111111111111111111111"};
