/* XPM */
static char *image[] = {
"48 48 469 2",
"   c None",
"00 c #991a05",
"10 c #991b06",
"20 c #030101",
"30 c #992406",
"40 c #992305",
"50 c #9a1a04",
"60 c #ff2500",
"70 c #ff2600",
"80 c #a21e07",
"90 c #a22907",
":0 c #9a2604",
";0 c #9a1c04",
"A0 c #ff2800",
"B0 c #ff2900",
"C0 c #ff2a00",
"D0 c #ff2b00",
"E0 c #aa2408",
"F0 c #aa2e08",
"G0 c #9a2a04",
"H0 c #9a1e04",
"I0 c #ff2d00",
"J0 c #ff2e00",
"K0 c #ff2f00",
"L0 c #ff3000",
"M0 c #b22806",
"N0 c #080302",
"O0 c #b23206",
"P0 c #9a2d04",
"Q0 c #9a2104",
"R0 c #ff3100",
"S0 c #ff3200",
"T0 c #ff3300",
"U0 c #ff3400",
"V0 c #ba2c05",
"W0 c #0b0402",
"X0 c #0b0502",
"Y0 c #ba3505",
"Z0 c #9a3004",
"a0 c #551605",
"b0 c #ff3500",
"c0 c #ff3600",
"d0 c #ff3700",
"e0 c #ff3800",
"f0 c #ff3900",
"g0 c #c13206",
"h0 c #0f0603",
"i0 c #0f0703",
"j0 c #c13b06",
"k0 c #551e05",
"l0 c #972808",
"m0 c #ff3a00",
"n0 c #ff3b00",
"o0 c #ff3c00",
"p0 c #ff3d00",
"q0 c #ff3e00",
"r0 c #ff3f00",
"s0 c #c83907",
"t0 c #130804",
"u0 c #c84107",
"v0 c #973708",
"w0 c #a22e09",
"x0 c #ff4000",
"y0 c #ff4100",
"z0 c #ff4200",
"01 c #ff4300",
"11 c #ff4400",
"21 c #cf3e06",
"31 c #170903",
"41 c #cf4506",
"51 c #a23d09",
"61 c #050202",
"71 c #ad3307",
"81 c #ff4500",
"91 c #ff4600",
":1 c #ff4700",
";1 c #ff4800",
"A1 c #ff4900",
"B1 c #ff4a00",
"C1 c #d64304",
"D1 c #1b0b03",
"E1 c #d64904",
"F1 c #ff5800",
"G1 c #ad4207",
"H1 c #050302",
"I1 c #b73804",
"J1 c #ff4b00",
"K1 c #ff4c00",
"L1 c #ff4d00",
"M1 c #ff4e00",
"N1 c #ff4f00",
"O1 c #dc4a04",
"P1 c #210e05",
"Q1 c #210f05",
"R1 c #dc4f04",
"S1 c #ff5900",
"T1 c #ff5a00",
"U1 c #ff5b00",
"V1 c #ff5c00",
"W1 c #b74704",
"X1 c #070301",
"Y1 c #0a0402",
"Z1 c #be3f06",
"a1 c #ff5000",
"b1 c #ff5100",
"c1 c #ff5200",
"d1 c #ff5300",
"e1 c #ff5400",
"f1 c #ff5500",
"g1 c #ff5700",
"h1 c #e15005",
"i1 c #271105",
"j1 c #271205",
"k1 c #e15505",
"l1 c #ff5d00",
"m1 c #ff5e00",
"n1 c #ff5f00",
"o1 c #ff6000",
"p1 c #ff6300",
"q1 c #be4e06",
"r1 c #0a0502",
"s1 c #020202",
"t1 c #060302",
"u1 c #602103",
"v1 c #ef5000",
"w1 c #ff5600",
"x1 c #9c3500",
"y1 c #5e2001",
"z1 c #5a1f00",
"02 c #5a2000",
"12 c #722800",
"22 c #ef5600",
"32 c #e65605",
"42 c #1e0d03",
"52 c #2a1304",
"62 c #e65a05",
"72 c #ff6100",
"82 c #ff6200",
"92 c #9c3c00",
":2 c #5e2500",
";2 c #722d00",
"A2 c #ef5f00",
"B2 c #9c3e00",
"C2 c #5e2600",
"D2 c #481e02",
"E2 c #050301",
"F2 c #cfcfcf",
"G2 c #c4c4c4",
"H2 c #f1d1c0",
"I2 c #f35600",
"J2 c #963600",
"K2 c #d3c6c0",
"L2 c #f35d00",
"M2 c #6a2901",
"N2 c #efd2c1",
"O2 c #f36000",
"P2 c #ff6600",
"Q2 c #ff6700",
"R2 c #712e00",
"S2 c #d3c7c0",
"T2 c #f1d4c0",
"U2 c #f36600",
"V2 c #963f00",
"W2 c #d3c8c0",
"X2 c #c74c03",
"Y2 c #f45c00",
"Z2 c #f1d2c0",
"a2 c #fefefe",
"b2 c #e95d00",
"c2 c #6d2c00",
"d2 c #e96100",
"e2 c #ff6b00",
"f2 c #cb5b04",
"g2 c #c2c1c0",
"h2 c #fdfdfd",
"i2 c #1b0d04",
"j2 c #da5a05",
"k2 c #f46100",
"l2 c #ea5e00",
"m2 c #e95e00",
"n2 c #703913",
"o2 c #e96200",
"p2 c #e96500",
"q2 c #ff6f00",
"r2 c #ff7000",
"s2 c #ff7100",
"t2 c #c55c05",
"u2 c #1b0e04",
"v2 c #1e1e1e",
"w2 c #fcfcfc",
"x2 c #211105",
"y2 c #e16105",
"z2 c #ff6c00",
"03 c #6d2e00",
"13 c #e96600",
"23 c #6d3000",
"33 c #e96900",
"43 c #ff7400",
"53 c #ff7500",
"63 c #ff7600",
"73 c #1b0f04",
"83 c #fbfbfb",
"93 c #d7d7d7",
":3 c #fafafa",
";3 c #281405",
"A3 c #e86803",
"B3 c #fb6f00",
"C3 c #662d00",
"D3 c #e96a00",
"E3 c #6d3200",
"F3 c #e96d00",
"G3 c #ff7900",
"H3 c #ff7a00",
"I3 c #fb7800",
"J3 c #663000",
"K3 c #f9f9f9",
"L3 c #101010",
"M3 c #191919",
"N3 c #120901",
"O3 c #542701",
"P3 c #5e3613",
"Q3 c #f7f7f7",
"R3 c #e96f00",
"S3 c #6d3400",
"T3 c #5e3713",
"U3 c #5a2c00",
"V3 c #5e3813",
"W3 c #1b1b1b",
"X3 c #f6f6f6",
"Y3 c #c7c7c7",
"Z3 c #e4e4e4",
"a3 c #ea7300",
"b3 c #924900",
"c3 c #f3f3f3",
"d3 c #c6c6c6",
"e3 c #f2f2f2",
"f3 c #efefef",
"g3 c #e1e1e1",
"h3 c #eeeeee",
"i3 c #f37d00",
"j3 c #e6ceb5",
"k3 c #ededed",
"l3 c #dfdfdf",
"m3 c #ececec",
"n3 c #dedede",
"o3 c #e8e8e8",
"p3 c #743f05",
"q3 c #e97a01",
"r3 c #e97a00",
"s3 c #ea7b00",
"t3 c #f48100",
"u3 c #ff8700",
"v3 c #ff8800",
"w3 c #f48300",
"x3 c #ea7f00",
"y3 c #e97f00",
"z3 c #e98000",
"04 c #e98100",
"14 c #ea8200",
"24 c #945b13",
"34 c #e5e5e5",
"44 c #d3d3d3",
"54 c #814806",
"64 c #ff8900",
"74 c #ff8a00",
"84 c #ff8b00",
"94 c #ff8c00",
":4 c #f38c00",
";4 c #d9c5a8",
"A4 c #dbdbdb",
"B4 c #a9a9a9",
"C4 c #8a5008",
"D4 c #ff8d00",
"E4 c #ff8e00",
"F4 c #ff8f00",
"G4 c #ff9000",
"H4 c #f49200",
"I4 c #eb8d01",
"J4 c #865408",
"K4 c #010101",
"L4 c #935708",
"M4 c #ff9100",
"N4 c #ff9200",
"O4 c #ff9300",
"P4 c #ff9400",
"Q4 c #936008",
"R4 c #020201",
"S4 c #9d5e06",
"T4 c #ff9500",
"U4 c #ff9600",
"V4 c #ff9700",
"W4 c #ff9800",
"X4 c #9d6806",
"Y4 c #a56606",
"Z4 c #ff9900",
"a4 c #ff9a00",
"b4 c #ff9b00",
"c4 c #ff9c00",
"d4 c #a57106",
"e4 c #ae6e08",
"f4 c #ff9d00",
"g4 c #ff9e00",
"h4 c #ff9f00",
"i4 c #ffa000",
"j4 c #84590a",
"k4 c #ae7b08",
"l4 c #080602",
"m4 c #b77608",
"n4 c #ffa100",
"o4 c #ffa200",
"p4 c #ffa300",
"q4 c #ffa400",
"r4 c #8f6209",
"s4 c #010100",
"t4 c #8f6309",
"u4 c #b78408",
"v4 c #0b0802",
"w4 c #0d0902",
"x4 c #bf7e06",
"y4 c #ffa500",
"z4 c #ffa600",
"05 c #ffa700",
"15 c #ffa800",
"25 c #9a6a05",
"35 c #020101",
"45 c #9a6d05",
"55 c #bf8e06",
"65 c #0d0a02",
"75 c #110c03",
"85 c #c78504",
"95 c #ffa900",
":5 c #ffaa00",
";5 c #ffab00",
"A5 c #ffac00",
"B5 c #ffad00",
"C5 c #a47407",
"D5 c #030201",
"E5 c #a47707",
"F5 c #c79704",
"G5 c #110e03",
"H5 c #161004",
"I5 c #cd8d06",
"J5 c #ffae00",
"K5 c #ffaf00",
"L5 c #ffb000",
"M5 c #ffb100",
"N5 c #ad7d08",
"O5 c #050402",
"P5 c #ad8108",
"Q5 c #cda006",
"R5 c #161204",
"S5 c #1a1304",
"T5 c #d39506",
"U5 c #ffb200",
"V5 c #ffb300",
"W5 c #ffb400",
"X5 c #ffb500",
"Y5 c #b68607",
"Z5 c #070602",
"a5 c #b68b07",
"b5 c #d3aa06",
"c5 c #1a1604",
"d5 c #1e1603",
"e5 c #d99c05",
"f5 c #ffb600",
"g5 c #ffb700",
"h5 c #ffb800",
"i5 c #ffb900",
"j5 c #be8f04",
"k5 c #090702",
"l5 c #090802",
"m5 c #be9604",
"n5 c #d9b305",
"o5 c #1e1903",
"p5 c #473404",
"q5 c #f8b501",
"r5 c #ffba00",
"s5 c #ffbb00",
"t5 c #ffbc00",
"u5 c #ffbd00",
"v5 c #ffbe00",
"w5 c #ffbf00",
"x5 c #c79806",
"y5 c #0d0b03",
"z5 c #c7a106",
"06 c #ffcf00",
"16 c #473c04",
"26 c #4c3904",
"36 c #f8ba01",
"46 c #ffc000",
"56 c #ffc100",
"66 c #ffc200",
"76 c #ffc300",
"86 c #ffc400",
"96 c #cfa207",
":6 c #130f04",
";6 c #131004",
"A6 c #cfac07",
"B6 c #ffd300",
"C6 c #ffd400",
"D6 c #ffd500",
"E6 c #ffd700",
"F6 c #ffd800",
"G6 c #f8d401",
"H6 c #4c3b04",
"I6 c #f8c001",
"J6 c #ffc500",
"K6 c #ffc600",
"L6 c #ffc700",
"M6 c #ffc800",
"N6 c #ffc900",
"O6 c #ffca00",
"P6 c #d7ab05",
"Q6 c #181304",
"R6 c #181404",
"S6 c #d7b705",
"T6 c #ffd900",
"U6 c #ffda00",
"V6 c #ffdb00",
"W6 c #ffdc00",
"X6 c #ffdd00",
"Y6 c #f8d801",
"Z6 c #4c4204",
"a6 c #4c3c04",
"b6 c #f8c501",
"c6 c #ffcb00",
"d6 c #ffcc00",
"e6 c #ffcd00",
"f6 c #ffce00",
"g6 c #deb403",
"h6 c #1d1702",
"i6 c #1d1902",
"j6 c #dec103",
"k6 c #ffde00",
"l6 c #ffdf00",
"m6 c #ffe000",
"n6 c #ffe100",
"o6 c #f8dc01",
"p6 c #4c4304",
"q6 c #4c3e04",
"r6 c #f8ca01",
"s6 c #ffd000",
"t6 c #ffd100",
"u6 c #ffd200",
"v6 c #e3bc04",
"w6 c #221d04",
"x6 c #221f04",
"y6 c #e3ca04",
"z6 c #ffe400",
"07 c #ffe500",
"17 c #f8e001",
"27 c #4c4004",
"37 c #f8d001",
"47 c #ffd600",
"57 c #e8c304",
"67 c #292305",
"77 c #292505",
"87 c #e8d304",
"97 c #ffe800",
":7 c #f8e201",
";7 c #4c4104",
"A7 c #e6c504",
"B7 c #2f2905",
"C7 c #2f2b05",
"D7 c #e6d104",
"E7 c #4c4504",
"F7 c #0b0902",
"G7 c #0b0a02",
"H7 c #000000",
"                                                                                                ",
"                                                                                                ",
"                    H7                                                    H7                    ",
"                H7H7G7H7                                                H7F7H7H7                ",
"              H7H7E7D7C7H7                                            H7B7A7;7H7H7              ",
"            H7H7E7:7978777H7                                        H76757473727H7H7            ",
"          H7H7E71707z6z6y6x6H7                                    H7w6v6u6t6s6r6q6H7H7          ",
"        H7H7p6o6n6m6m6l6k6j6i6H7                                H7h6g6f6e6d6d6c6b6a6H7H7        ",
"      H7H7Z6Y6X6W6W6V6U6T6T6S6R6H7                            H7Q6P6O6N6M6M6L6K6J6I6H6H7H7      ",
"    H7H7;7G6T6F6F6E647D6D6C6B6A6;6H7                        H7:696K6J6868676665656463626H7H7    ",
"    H71637D6C6B6B6u6t6t6s606f6f6z5y5H7                    H7y5x5665646w5w5v5u5u5t5s5r5q5p5H7    ",
"    H7o5n5s60606f6e6e6d6c6O6O6N6M6m5l5H7                H7k5j5v5u5t5s5s5r5i5i5h5g5f5f5e5d5H7    ",
"      H7c5b5c6O6N6M6M6L6K6K6J6867676a5Z5H7            H7Z5Y5i5i5h5g5g5f5X5W5W5V5U5U5T5S5H7      ",
"        H7R5Q5J686867666665646w5w5v5u5P5O5H7        H7O5N5X5X5W5V5V5U5M5L5L5K5J5J5I5H5H7        ",
"          H7G5F546w5v5v5u5t5s5s5r5i5h5h5E5D5H7    H7D5C5M5M5L5K5J5J5B5A5A5;5:5958575H7          ",
"            H76555r5i5i5h5g5g5f5X5W5W5V5U54535H7H73525B5B5A5;5:5:595151505z4y4x4w4H7            ",
"              H7v4u4X5W5V5U5U5M5L5L5K5J5J5B5t4s4s4r495151505z4z4y4q4q4p4o4n4m4v4H7              ",
"                H7l4k4K5J5J5B5A5A5;5:595951505j4j4y4q4q4p4o4o4n4i4h4h4g4f4e4l4H7                ",
"                  H7O5d4:595151505z4y4y4q4p4p4o4n4i4i4h4g4g4f4c4b4b4a4Z4Y4O5H7                  ",
"                    H7D5X4q4p4p4o4n4n4i4h4g4g4f4c4c4b4a4Z4Z4W4V4V4U4T4S4D5H7                    ",
"                      H7R4Q4h4g4f4f4c4b4a4a4Z4W4W4V4U4T4T4P4O4O4N4M4L435H7                      ",
"                        H7K4J4I4H4V4V4U4U4T4P4O4O4N4M4M4G4F4E4E4D4C4K4H7                        ",
"                          H7B4A4;4:4N4N4M4G4F4F4E4D4D4948474746454s4H7              4444        ",
"                            343434241404z3z3y3x3w3v3u3t3s3r3q3p3H7H7                o3o3        ",
"    n3m3m3m3m3m3m3m3m3l3    k3k3k3k3k3k3k3k3k3k3j3i3i3j3h3h3h3h3h3h3h3h3h3g3    g3f3f3f3f3g3    ",
"    e3e3e3e3e3e3e3e3e3d3    e3e3e3e3e3e3e3e3c3c3c3b3a3c3c3c3c3c3c3c3c3c3c3c3    Z3c3c3c3c3Y3    ",
"    X3X3X3W3H7H7H7H7H7H7H7H7X3X3X3V3U3U3U3T3X3X3X3S3R3Q3Q3Q3P3O3N3H7H7M3Q3Q3L3    Q3Q3Q3W3H7    ",
"    K3K3K3H7              H7K3K3K3J3I3H3G3F3K3K3K3E3D3K3K3K3C3B3A3;3H7H7K3:393    :3:3:3H7      ",
"    838383H7            H773838383E363534333838383231383838303z2z2y2x2H7838383    838383H7      ",
"    w2w2w2v2        H7H7u2t2w2w2w223s2r2q2p2w2w2w203o2w2w2w2n2m2l2k2j2i2h2h2h2H7  h2h2h2v2      ",
"    h2h2h2h2h2h2h2h2h2g2f213h2h2h203z2e2e2d2h2h2h2c2b2h2a2a2a2a2a2Z2Y2X2a2a2a2H7  a2a2a2a2k3    ",
"    h3a2a2a2a2a2a2a2a2W2V2U2T2a2S2R2Q2Q2P2O2N2a2g2M2L2Z2a2a2a2a2a2K2J2I2H2a2G2H7  k3a2a2a2F2    ",
"      H7H7H7H7H7H7E2D2C2B2P2A2;2:2928282726252H7H742322212020202z1y1x1w1v1u1t1K4    K4s1s1s1    ",
"              H7r1q1p1p1827272o1n1m1m1l1k1j1H7    H7i1h1g1w1f1e1e1d1c1c1b1a1Z1Y1H7              ",
"            H7X1W1n1n1m1l1V1V1U1T1T1S1R1Q1H7        H7P1O1b1a1a1N1M1M1L1K1J1J1I1X1H7            ",
"          H7H1G1U1U1T1S1F1F1g1w1w1f1E1D1H7            H7D1C1K1J1B1A1A1;1:1:191817161H7          ",
"        H7D551g1g1w1f1e1e1d1c1c1b14131H7                H73121918181110101z0y0x0x0w0D5H7        ",
"      H7K4v0d1c1c1b1a1a1N1M1L1L1u0t0H7                    H7t0s0y0x0r0q0q0p0o0o0n0m0l0K4H7      ",
"      H7k0N1M1M1L1K1K1J1B1A1A1j0i0H7                        H7h0g0n0m0m0f0e0e0d0c0b0b0a0H7      ",
"      H735Z0B1A1;1:1:1918181Y0X0H7                            H7W0V0c0b0U0T0T0S0R0R0Q035H7      ",
"        H735P0110101z0y0y0O0N0H7                                H7N0M0L0K0K0J0I0I0H035H7        ",
"          H735G0r0q0p0o0F0t1H7                                    H7t1E0D0C0B0A0;035H7          ",
"            H735:0f0e09061H7                                        H7618070605035H7            ",
"              H735403020H7                                            H720100035H7              ",
"                H7H7H7H7                                                H7H7H7H7                ",
"                  H7H7                                                    H7H7                  ",
"                                                                                                ",
"                                                                                                "};
